<?xml version="1.0" encoding="UTF-8"?>
<svg version="1.1" xmlns="http://www.w3.org/2000/svg" width="500" height="500">
<path d="M0 0 C1.32276056 0.37308631 2.65232077 0.73046415 4 1 C4 1.66 4 2.32 4 3 C4.70511719 3.08378906 5.41023437 3.16757813 6.13671875 3.25390625 C9.67060815 4.17474237 11.88408212 5.76960831 14.8125 7.9375 C15.78832031 8.64777344 16.76414062 9.35804687 17.76953125 10.08984375 C18.50558594 10.72019531 19.24164063 11.35054687 20 12 C20 12.66 20 13.32 20 14 C20.66 14 21.32 14 22 14 C23.62356346 15.96937661 25.13559566 17.93345148 26.625 20 C27.25535156 20.85851562 27.25535156 20.85851562 27.8984375 21.734375 C28.93805801 23.15203933 29.96977591 24.57549262 31 26 C31.91523438 25.83886719 32.83046875 25.67773438 33.7734375 25.51171875 C46.90801155 23.42863255 61.01977324 26.46873172 71.953125 34.046875 C83.86997281 43.48918611 91.51596481 53.93433186 95 69 C96.53091075 84.50537814 94.5956356 99.27580925 85 112 C82.17195439 115.19526232 79.28998763 118.27589024 76 121 C75.34 121 74.68 121 74 121 C74 121.66 74 122.32 74 123 C72.5839401 123.79275148 71.16712447 124.58415312 69.75 125.375 C68.96109375 125.81585938 68.1721875 126.25671875 67.359375 126.7109375 C66.58078125 127.13632813 65.8021875 127.56171875 65 128 C64.30390625 128.38414062 63.6078125 128.76828125 62.890625 129.1640625 C61 130 61 130 58 130 C58.01571045 130.91700684 58.0314209 131.83401367 58.04760742 132.77880859 C58.09916391 136.22678441 58.13655554 139.6743423 58.16479492 143.12255859 C58.17975184 144.60634889 58.20012495 146.09009599 58.22631836 147.57373047 C58.50067242 163.52930192 55.30843161 176.15307165 44 188 C31.83937202 199.31694805 16.67517498 200.10628039 0.93359375 200.24609375 C-1.59831099 200.27901402 -4.13021194 200.31222596 -6.66210938 200.34570312 C-10.62066216 200.39315953 -14.57919768 200.4376651 -18.5378418 200.47680664 C-22.38084797 200.51660708 -26.22356238 200.56810666 -30.06640625 200.62109375 C-31.83232872 200.63371498 -31.83232872 200.63371498 -33.63392639 200.64659119 C-41.82930859 200.76929378 -49.05535903 201.10127872 -55.875 206.125 C-59.82296651 209 -59.82296651 209 -62 209 C-62 209.66 -62 210.32 -62 211 C-63.38598633 212.20166016 -63.38598633 212.20166016 -65.33203125 213.5390625 C-66.04302979 214.03374023 -66.75402832 214.52841797 -67.48657227 215.03808594 C-68.25412842 215.56176758 -69.02168457 216.08544922 -69.8125 216.625 C-71.38106865 217.70448012 -72.94877686 218.7852116 -74.515625 219.8671875 C-75.28455078 220.39795898 -76.05347656 220.92873047 -76.84570312 221.47558594 C-78.70847638 222.79371334 -80.51144259 224.15033932 -82.296875 225.5703125 C-89.79258134 231.47794546 -89.79258134 231.47794546 -94.375 231.75 C-98.35721098 230.92609428 -100.18720062 229.89803572 -103 227 C-104.69167828 223.61664344 -104.12870768 219.7731199 -104.11352539 216.05224609 C-104.11367142 215.12536484 -104.11381744 214.19848358 -104.1139679 213.24351501 C-104.11326946 210.1701323 -104.10548027 207.09680967 -104.09765625 204.0234375 C-104.09579182 201.89637281 -104.09436804 199.7693077 -104.09336853 197.64224243 C-104.08954528 192.03624288 -104.07971662 186.43026912 -104.06866455 180.82427979 C-104.0584463 175.10681507 -104.05387002 169.38934621 -104.04882812 163.671875 C-104.0380942 152.44790532 -104.02102007 141.2239548 -104 130 C-104.60255615 129.80881592 -105.2051123 129.61763184 -105.82592773 129.4206543 C-106.62458252 129.16195557 -107.4232373 128.90325684 -108.24609375 128.63671875 C-109.42836548 128.25713013 -109.42836548 128.25713013 -110.63452148 127.86987305 C-114.02900654 126.62159663 -116.92621427 124.89659119 -120 123 C-120 122.34 -120 121.68 -120 121 C-120.58136719 120.73703125 -121.16273438 120.4740625 -121.76171875 120.203125 C-131.10519533 115.18080251 -136.38598157 104.8522743 -139.62451172 95.12402344 C-143.04697904 82.91793569 -142.37774088 68.4453893 -137 57 C-136.649375 56.21753906 -136.29875 55.43507812 -135.9375 54.62890625 C-129.47453907 41.68054355 -118.71103912 32.82160589 -105.2890625 28.0390625 C-97.62665638 25.61839738 -91.74179155 24.83540947 -83.75 26 C-80.24849779 26.4955393 -80.24849779 26.4955393 -77 26 C-74.3668121 23.61367347 -72.90255433 21.34834278 -71.234375 18.22265625 C-70.82703125 17.48917969 -70.4196875 16.75570312 -70 16 C-69.34 16 -68.68 16 -68 16 C-68 15.34 -68 14.68 -68 14 C-67.34 14 -66.68 14 -66 14 C-66 13.34 -66 12.68 -66 12 C-65.34 12 -64.68 12 -64 12 C-64 11.34 -64 10.68 -64 10 C-45.94256632 -4.55693826 -21.49648119 -10.09018505 0 0 Z " fill="#F02F29" transform="translate(273,66)"/>
<path d="M0 0 C4.02345296 2.1397156 7.7380802 4.55891197 11.39453125 7.2734375 C12.28140625 7.8921875 13.16828125 8.5109375 14.08203125 9.1484375 C19.69150795 14.30309176 23.16479749 20.45511066 26.39453125 27.2734375 C27.55701076 28.66273404 27.55701076 28.66273404 30.76953125 28.3984375 C34.34776097 28.44644211 34.34776097 28.44644211 37.39453125 27.2734375 C52.49536427 26.34579318 63.54130303 28.03426589 75.39453125 38.2734375 C75.39453125 38.9334375 75.39453125 39.5934375 75.39453125 40.2734375 C76.05453125 40.2734375 76.71453125 40.2734375 77.39453125 40.2734375 C78.83203125 42.25 78.83203125 42.25 80.39453125 44.8984375 C80.91015625 45.75695312 81.42578125 46.61546875 81.95703125 47.5 C86.76630827 56.77876816 86.89637366 68.31888314 84.70703125 78.45703125 C83.788941 80.90909731 82.75040797 83.03624092 81.39453125 85.2734375 C80.98203125 85.9746875 80.56953125 86.6759375 80.14453125 87.3984375 C75.94210121 93.70208256 69.61419452 99.39268231 62.08203125 100.96484375 C60.75171875 101.11759766 60.75171875 101.11759766 59.39453125 101.2734375 C59.18699219 100.65597656 58.97945312 100.03851563 58.765625 99.40234375 C54.72628229 88.29837656 47.94532711 79.88530728 37.39453125 74.2734375 C26.66789631 69.84218885 16.62947748 69.68222698 5.20703125 69.7421875 C3.37345169 69.73948523 1.53987354 69.73559673 -0.29370117 69.73059082 C-4.11618846 69.7247303 -7.93829908 69.73314646 -11.76074219 69.75195312 C-16.62566626 69.77474061 -21.48970721 69.76159885 -26.354599 69.73766327 C-30.13479089 69.72311138 -33.91477828 69.72785397 -37.69497681 69.73817444 C-39.48727527 69.74081587 -41.27959318 69.73766452 -43.0718689 69.72825623 C-58.53460776 69.66487164 -71.7525037 71.23156181 -83.60546875 82.2734375 C-88.69536799 88.07237742 -92.37504473 93.88515795 -94.60546875 101.2734375 C-101.4909675 100.62792199 -106.81822109 96.40712165 -111.35546875 91.4609375 C-114.48139074 87.68704535 -116.70852806 83.77754787 -118.60546875 79.2734375 C-118.96253906 78.52707031 -119.31960937 77.78070313 -119.6875 77.01171875 C-120.8506425 73.54208943 -120.98907664 70.26977516 -120.98046875 66.6484375 C-120.97885742 65.94348145 -120.97724609 65.23852539 -120.97558594 64.51220703 C-120.7424008 54.46924333 -117.06620676 46.22981307 -110.35546875 38.7734375 C-99.99713435 29.35676986 -91.42035464 26.7770697 -77.46484375 27.0859375 C-73.45618179 27.28069031 -69.56378605 27.70088808 -65.62109375 28.4453125 C-63.42459658 28.44727567 -63.42459658 28.44727567 -61.52734375 26.59765625 C-59.60046837 24.2673903 -58.09574574 21.96417057 -56.60546875 19.3359375 C-45.37982532 0.33014516 -20.89988747 -9.05340747 0 0 Z " fill="#FDE8DF" transform="translate(267.60546875,79.7265625)"/>
<path d="M0 0 C1.32276056 0.37308631 2.65232077 0.73046415 4 1 C4 1.66 4 2.32 4 3 C4.70511719 3.08378906 5.41023437 3.16757813 6.13671875 3.25390625 C9.67060815 4.17474237 11.88408212 5.76960831 14.8125 7.9375 C15.78832031 8.64777344 16.76414062 9.35804687 17.76953125 10.08984375 C18.50558594 10.72019531 19.24164063 11.35054687 20 12 C20 12.66 20 13.32 20 14 C20.66 14 21.32 14 22 14 C23.62356346 15.96937661 25.13559566 17.93345148 26.625 20 C27.25535156 20.85851562 27.25535156 20.85851562 27.8984375 21.734375 C28.93805801 23.15203933 29.96977591 24.57549262 31 26 C31.91523438 25.83886719 32.83046875 25.67773438 33.7734375 25.51171875 C46.90801155 23.42863255 61.01977324 26.46873172 71.953125 34.046875 C83.86997281 43.48918611 91.51596481 53.93433186 95 69 C96.53091075 84.50537814 94.5956356 99.27580925 85 112 C82.17195439 115.19526232 79.28998763 118.27589024 76 121 C75.34 121 74.68 121 74 121 C74 121.66 74 122.32 74 123 C72.54462432 123.83848804 71.08559627 124.67063934 69.625 125.5 C68.81289063 125.9640625 68.00078125 126.428125 67.1640625 126.90625 C65 128 65 128 63 128 C63.33 127.01 63.66 126.02 64 125 C64.66 125 65.32 125 66 125 C66.33 124.01 66.66 123.02 67 122 C67.66 122 68.32 122 69 122 C68.67 120.02 68.34 118.04 68 116 C67.01 116 66.02 116 65 116 C65 115.34 65 114.68 65 114 C64.401875 114.33 63.80375 114.66 63.1875 115 C61 116 61 116 58 116 C58 115.34 58 114.68 58 114 C59.86328125 112.52734375 59.86328125 112.52734375 62.3125 110.9375 C63.11300781 110.41027344 63.91351563 109.88304687 64.73828125 109.33984375 C67 108 67 108 70 107 C71.00916033 105.23408113 71.00916033 105.23408113 72 103 C72.9590625 101.63875 72.9590625 101.63875 73.9375 100.25 C78.24851841 93.45688009 79.53547471 87.527497 79.4375 79.625 C79.42940308 78.37481079 79.42940308 78.37481079 79.42114258 77.09936523 C79.24078925 69.79469892 77.88278796 63.74968839 73.36328125 57.87109375 C72 56 72 56 72 54 C71.34 54 70.68 54 70 54 C69.319375 53.278125 68.63875 52.55625 67.9375 51.8125 C62.2319699 45.87064617 53.78925859 41.97760671 45.58203125 41.76953125 C43.99212788 41.77347642 42.40221953 41.78800311 40.8125 41.8125 C39.60303711 41.8134668 39.60303711 41.8134668 38.36914062 41.81445312 C34.91688412 41.84028048 32.30839059 41.89720314 29 43 C22.59167368 43.45773759 22.59167368 43.45773759 20.4296875 41.78515625 C18.75807397 39.69792297 17.73768284 37.6182266 16.625 35.1875 C11.11013352 23.96255053 1.63333299 17.2097275 -10 13 C-20.45004303 10.04976699 -33.43726326 10.88432457 -43 16 C-45.44591477 17.49742263 -47.8045171 19.04555929 -50.125 20.73046875 C-52 22 -52 22 -55 23 C-56.06592578 24.82872957 -56.06592578 24.82872957 -57 27 C-58.45202638 29.28175574 -59.96796247 31.51074761 -61.49609375 33.7421875 C-62.9806893 35.90183248 -62.9806893 35.90183248 -64.03515625 37.8828125 C-64.9375 39.5 -64.9375 39.5 -67 42 C-70.35963456 42.91626397 -72.8274399 43.25126288 -76.2421875 42.51953125 C-85.29945552 40.81327538 -96.6515594 40.80407665 -105 45 C-107.51839325 46.74618947 -109.86724426 48.57299818 -112.1875 50.57421875 C-114 52 -114 52 -116 52 C-116.40025391 52.804375 -116.40025391 52.804375 -116.80859375 53.625 C-117.68852062 55.37908372 -118.57799178 57.12838714 -119.47265625 58.875 C-119.99730469 59.90625 -120.52195313 60.9375 -121.0625 62 C-121.58972656 63.03125 -122.11695313 64.0625 -122.66015625 65.125 C-126.27046517 72.87190194 -126.40595448 83.01249768 -124.09375 91.21484375 C-119.9641688 100.65199565 -114.34271411 107.57259849 -105.6875 113.125 C-104.800625 113.74375 -103.91375 114.3625 -103 115 C-103 115.66 -103 116.32 -103 117 C-105.31 116.67 -107.62 116.34 -110 116 C-110.4125 116.639375 -110.825 117.27875 -111.25 117.9375 C-113.17810487 120.20990931 -114.11424181 120.60196439 -117 121 C-115.68 122.32 -114.36 123.64 -113 125 C-113.66 125.33 -114.32 125.66 -115 126 C-117.625 124.6875 -117.625 124.6875 -120 123 C-120 122.34 -120 121.68 -120 121 C-120.58136719 120.73703125 -121.16273438 120.4740625 -121.76171875 120.203125 C-131.10519533 115.18080251 -136.38598157 104.8522743 -139.62451172 95.12402344 C-143.04697904 82.91793569 -142.37774088 68.4453893 -137 57 C-136.649375 56.21753906 -136.29875 55.43507812 -135.9375 54.62890625 C-129.47453907 41.68054355 -118.71103912 32.82160589 -105.2890625 28.0390625 C-97.62665638 25.61839738 -91.74179155 24.83540947 -83.75 26 C-80.24849779 26.4955393 -80.24849779 26.4955393 -77 26 C-74.3668121 23.61367347 -72.90255433 21.34834278 -71.234375 18.22265625 C-70.82703125 17.48917969 -70.4196875 16.75570312 -70 16 C-69.34 16 -68.68 16 -68 16 C-68 15.34 -68 14.68 -68 14 C-67.34 14 -66.68 14 -66 14 C-66 13.34 -66 12.68 -66 12 C-65.34 12 -64.68 12 -64 12 C-64 11.34 -64 10.68 -64 10 C-45.94256632 -4.55693826 -21.49648119 -10.09018505 0 0 Z " fill="#EE332D" transform="translate(273,66)"/>
<path d="M0 0 C2.14576637 -0.02685938 4.29162645 -0.04633088 6.4375 -0.0625 C7.63246094 -0.07410156 8.82742188 -0.08570313 10.05859375 -0.09765625 C13 0 13 0 14 1 C14.10495122 3.25906818 14.13857388 5.52146412 14.14526367 7.78295898 C14.14862228 8.49190308 14.1519809 9.20084717 14.15544128 9.93127441 C14.16497816 12.28623178 14.16689576 14.64111825 14.16796875 16.99609375 C14.17117945 18.62655162 14.17454337 20.25700919 14.17805481 21.88746643 C14.18405295 25.30983142 14.18589401 28.73217113 14.18530273 32.15454102 C14.18520108 36.54759232 14.19885393 40.94048213 14.21607494 45.33349514 C14.22717424 48.70230356 14.22922258 52.07107269 14.22869301 55.43989754 C14.22987623 57.05987162 14.23431707 58.67984661 14.24202538 60.29980278 C14.25178367 62.56253355 14.24896393 64.82491046 14.24291992 67.08764648 C14.24434494 68.37702621 14.24576996 69.66640594 14.24723816 70.99485779 C14 74 14 74 12 76 C8.63487539 76.50418243 5.36830795 76.46721691 2 76 C-0.625 74 -0.625 74 -2 72 C-2.94875 72.639375 -3.8975 73.27875 -4.875 73.9375 C-11.53135851 77.70854182 -18.69558648 77.56073601 -25.94921875 75.6796875 C-28.79625232 74.73609923 -31.39158029 73.47141624 -34 72 C-34 71.34 -34 70.68 -34 70 C-34.66 70 -35.32 70 -36 70 C-36 69.34 -36 68.68 -36 68 C-36.66 68 -37.32 68 -38 68 C-44.15392332 60.30759585 -44.81496534 51.57260876 -44 42 C-42.56228606 34.99265475 -38.55029232 28.79289662 -32.94921875 24.38671875 C-25.63995277 20.02572812 -17.26233136 19.77875836 -9 21 C-6.47701822 22.14735743 -4.33309709 23.47788867 -2 25 C-1.96241577 23.97060303 -1.96241577 23.97060303 -1.92407227 22.92041016 C-1.80828573 19.82174183 -1.68548115 16.72339077 -1.5625 13.625 C-1.52318359 12.54476563 -1.48386719 11.46453125 -1.44335938 10.3515625 C-1.38051758 8.8046875 -1.38051758 8.8046875 -1.31640625 7.2265625 C-1.27974854 6.27346191 -1.24309082 5.32036133 -1.20532227 4.33837891 C-1 2 -1 2 0 0 Z M-28.375 41.8125 C-29.74838311 46.61934088 -29.49561307 50.6435853 -27.8125 55.25 C-25.46100791 58.8177811 -22.81557843 61.09221079 -19 63 C-14.35695813 63.56645111 -10.87486883 63.42123314 -6.625 61.375 C-2.41994053 57.57042238 -0.85461556 54.1067342 -0.5625 48.5 C-0.72077705 44.02302059 -2.05278983 41.43841186 -5 38 C-9.093311 34.23126873 -12.71442744 34.44730311 -18.078125 34.578125 C-23.2145879 35.31975333 -25.28533146 37.73975511 -28.375 41.8125 Z " fill="#EB312A" transform="translate(306,326)"/>
<path d="M0 0 C0 0.66 0 1.32 0 2 C0.66 2 1.32 2 2 2 C2 2.66 2 3.32 2 4 C2.66 4 3.32 4 4 4 C8.46760888 11.2970945 11.16998392 18.33395634 10 27 C8.88068405 30.7618749 7.51524026 34.38101098 6 38 C5.34 38 4.68 38 4 38 C3.814375 38.721875 3.62875 39.44375 3.4375 40.1875 C1.46387409 44.048942 -1.34163683 45.80035126 -5 48 C-5.59554687 48.36222656 -6.19109375 48.72445312 -6.8046875 49.09765625 C-14.16999142 52.12503206 -23.62819662 51.71592756 -31 49 C-34.7151943 47.22512985 -38.44074673 45.31197482 -41 42 C-41 41.34 -41 40.68 -41 40 C-41.66 40 -42.32 40 -43 40 C-47.973018 31.97900323 -49.26170296 24.00303022 -47.57421875 14.63671875 C-45.60548278 7.6434787 -41.6777496 2.41389754 -35.6015625 -1.57421875 C-24.21355641 -7.68870202 -10.7801582 -7.5210406 0 0 Z M-29.25 11.8125 C-32.85098926 16.31373658 -33.58135971 20.28329616 -33 26 C-31.62998123 30.02119023 -29.95926269 33.12295982 -26.8125 36 C-22.78767619 37.43104847 -19.22009961 37.66985708 -15 37 C-10.61455135 34.80727567 -7.76684084 32.61341775 -6 28 C-5.3446324 22.70851341 -5.37238129 18.40586592 -7.5625 13.5 C-10.50130359 10.48584248 -13.00750814 9.28330095 -17 8 C-21.92117738 8 -25.37032145 8.68720339 -29.25 11.8125 Z " fill="#EC3630" transform="translate(248,352)"/>
<path d="M0 0 C5.51422864 5.36519543 8.61816661 11.57513631 9.3125 19.25 C9.39893358 26.71570042 7.80155805 32.67758833 4.3125 39.25 C3.6525 39.25 2.9925 39.25 2.3125 39.25 C2.3125 39.91 2.3125 40.57 2.3125 41.25 C1.6525 41.25 0.9925 41.25 0.3125 41.25 C0.3125 41.91 0.3125 42.57 0.3125 43.25 C-0.3475 43.25 -1.0075 43.25 -1.6875 43.25 C-1.6875 43.91 -1.6875 44.57 -1.6875 45.25 C-9.61837742 50.167144 -19.0086915 51.58288347 -28.1875 49.5 C-31.52114721 48.30941171 -34.58710015 46.95521992 -37.6875 45.25 C-37.6875 44.59 -37.6875 43.93 -37.6875 43.25 C-38.3475 43.25 -39.0075 43.25 -39.6875 43.25 C-39.6875 42.59 -39.6875 41.93 -39.6875 41.25 C-40.3475 41.25 -41.0075 41.25 -41.6875 41.25 C-41.6875 40.59 -41.6875 39.93 -41.6875 39.25 C-42.3475 39.25 -43.0075 39.25 -43.6875 39.25 C-48.44766349 31.4187633 -50.00974882 22.6470368 -47.8125 13.625 C-47.10416667 11.5 -46.39583333 9.375 -45.6875 7.25 C-45.0275 7.25 -44.3675 7.25 -43.6875 7.25 C-43.5225 6.54875 -43.3575 5.8475 -43.1875 5.125 C-40.61758988 0.19933894 -35.99159177 -2.56985544 -31.125 -5.0625 C-19.46275462 -8.35185126 -9.9160143 -6.45693954 0 0 Z M-28.6875 10.25 C-32.09065353 13.83226687 -33.51494854 16.48997508 -34 21.4375 C-33.5366001 27.09097882 -31.71713149 31.39433692 -27.5 35.25 C-23.47842168 36.67989452 -19.90424632 36.92676176 -15.6875 36.25 C-11.71984494 34.19269737 -8.99873104 32.06683298 -6.6875 28.25 C-5.91857171 23.29041252 -5.57557796 17.82072574 -7.6015625 13.13671875 C-10.3163601 9.60748187 -13.42527799 8.15685575 -17.6875 7.25 C-22.25147781 7.25 -24.65483087 8.16165349 -28.6875 10.25 Z " fill="#EB3631" transform="translate(397.6875,352.75)"/>
<path d="M0 0 C0 0.66 0 1.32 0 2 C0.66 2 1.32 2 2 2 C2 2.66 2 3.32 2 4 C2.66 4 3.32 4 4 4 C8.9012408 12.3375351 11.05123689 19.95938845 9.4375 29.625 C7.69508151 36.21537199 3.76110112 42.29143693 -2 46 C-2.66 46 -3.32 46 -4 46 C-4 46.66 -4 47.32 -4 48 C-10.94314989 51.19044929 -19.80477862 51.93601697 -27.3125 50.4375 C-36.02162648 47.04241679 -41.67579711 42.34058116 -46 34 C-49.46567576 25.17827988 -48.39702419 18.03226289 -45.0703125 9.3828125 C-44 7 -44 7 -42 4 C-41.34 4 -40.68 4 -40 4 C-40 3.34 -40 2.68 -40 2 C-39.34 2 -38.68 2 -38 2 C-38 1.34 -38 0.68 -38 0 C-26.44078297 -7.88128434 -11.55921703 -7.88128434 0 0 Z M-28 11 C-31.74063883 15.23282815 -33.28144365 19.40360132 -33 25 C-31.52569482 29.65570057 -29.80780618 32.90615748 -26 36 C-21.15840419 37.61386527 -16.79178187 37.83616487 -12.1875 35.6875 C-8.40830089 32.77211783 -6.38325008 30.68176952 -5 26 C-4.52303114 20.75334256 -5.13766706 17.44155111 -8 13 C-11.26447709 9.54898137 -14.16530594 8.26700521 -18.9453125 7.90625 C-22.53522363 8.07004823 -24.94065163 9.1761577 -28 11 Z " fill="#EE312A" transform="translate(187,352)"/>
<path d="M0 0 C15.51 0 31.02 0 47 0 C47 3.96 47 7.92 47 12 C46 13 46 13 43.04077148 13.11352539 C41.74727783 13.10828857 40.45378418 13.10305176 39.12109375 13.09765625 C38.09110008 13.09553383 38.09110008 13.09553383 37.04029846 13.09336853 C34.83932199 13.08775479 32.63844591 13.07520007 30.4375 13.0625 C28.94856917 13.05748676 27.45963676 13.05292355 25.97070312 13.04882812 C22.31373195 13.03863021 18.65697883 13.01905779 15 13 C15 18.28 15 23.56 15 29 C16.79308594 28.98839844 18.58617188 28.97679687 20.43359375 28.96484375 C22.76822813 28.95546771 25.10286363 28.94636731 27.4375 28.9375 C28.62150391 28.92912109 29.80550781 28.92074219 31.02539062 28.91210938 C32.15009766 28.90888672 33.27480469 28.90566406 34.43359375 28.90234375 C35.47572021 28.89710693 36.51784668 28.89187012 37.59155273 28.88647461 C40 29 40 29 41 30 C41.09851171 31.83115883 41.12972629 33.66619933 41.125 35.5 C41.12886719 37.00046875 41.12886719 37.00046875 41.1328125 38.53125 C41 41 41 41 40 42 C38.14630389 42.08737645 36.28932459 42.10698153 34.43359375 42.09765625 C33.30888672 42.09443359 32.18417969 42.09121094 31.02539062 42.08789062 C29.84138672 42.07951172 28.65738281 42.07113281 27.4375 42.0625 C26.24962891 42.05798828 25.06175781 42.05347656 23.83789062 42.04882812 C20.89187774 42.03699675 17.94596319 42.02051287 15 42 C15.01047363 42.83772949 15.02094727 43.67545898 15.03173828 44.53857422 C15.06580019 47.64338164 15.09088911 50.74809392 15.10986328 53.85302734 C15.12488107 55.8591136 15.15028981 57.86511324 15.17578125 59.87109375 C15.18222656 61.12792969 15.18867187 62.38476562 15.1953125 63.6796875 C15.20578613 64.84226074 15.21625977 66.00483398 15.22705078 67.20263672 C15 70 15 70 13 72 C10.46875 72.265625 10.46875 72.265625 7.5 72.25 C6.5203125 72.25515625 5.540625 72.2603125 4.53125 72.265625 C2 72 2 72 0 70 C-0.24050903 67.10202026 -0.24050903 67.10202026 -0.22705078 63.34716797 C-0.22734283 62.66412598 -0.22763489 61.98108398 -0.22793579 61.27734375 C-0.22654039 59.01549659 -0.21096967 56.75397724 -0.1953125 54.4921875 C-0.19158311 52.92563049 -0.18873579 51.35907116 -0.18673706 49.79251099 C-0.17909476 45.66605203 -0.15944124 41.53973349 -0.1373291 37.41333008 C-0.11328977 32.4640849 -0.10409252 27.51479281 -0.09242249 22.56550598 C-0.07301709 15.04357294 -0.03469889 7.52194811 0 0 Z " fill="#EB3029" transform="translate(95,330)"/>
<path d="M0 0 C3.465 1.485 3.465 1.485 7 3 C7 3.66 7 4.32 7 5 C7.66 5 8.32 5 9 5 C9 5.66 9 6.32 9 7 C9.66 7 10.32 7 11 7 C15.9012408 15.3375351 18.05123689 22.95938845 16.4375 32.625 C14.69508151 39.21537199 10.76110112 45.29143693 5 49 C4.34 49 3.68 49 3 49 C3 49.66 3 50.32 3 51 C-4.04333361 54.23648475 -12.97557114 54.94861252 -20.5625 53.3125 C-24.02579076 51.99015262 -26.30666191 50.52500446 -29 48 C-27.3603125 47.938125 -27.3603125 47.938125 -25.6875 47.875 C-21.75003667 47.39434602 -21.75003667 47.39434602 -20.0625 43.9375 C-19.711875 42.968125 -19.36125 41.99875 -19 41 C-19.99 40.67 -20.98 40.34 -22 40 C-22.33 39.34 -22.66 38.68 -23 38 C-23.99 38 -24.98 38 -26 38 C-25.95875 37.2575 -25.9175 36.515 -25.875 35.75 C-25.80607234 33.04468892 -25.80607234 33.04468892 -27 31.0625 C-28.33343743 28.3122853 -28.1370035 26.01407708 -28 23 C-27.34 23.33 -26.68 23.66 -26 24 C-25.2890625 26.14453125 -25.2890625 26.14453125 -24.625 28.8125 C-23.47741278 32.86962652 -22.53836941 35.45679699 -19 38 C-14.19135086 39.60288305 -9.82928589 39.77236515 -5.1875 37.8125 C-2.16248958 35.3060628 -0.73026121 32.46052242 1 29 C1.40282133 23.76332273 0.83087029 20.44851046 -2 16 C-3.92022703 14.22590192 -3.92022703 14.22590192 -6 13 C-6.99 12.34 -7.98 11.68 -9 11 C-6.3125 10.6875 -6.3125 10.6875 -3 11 C-0.1875 13.4375 -0.1875 13.4375 2 16 C2.33 16.33 2.66 16.66 3 17 C3 15.35 3 13.7 3 12 C3.99 11.67 4.98 11.34 6 11 C6 10.34 6 9.68 6 9 C6.99 8.67 7.98 8.34 9 8 C8.01 7.67 7.02 7.34 6 7 C6 6.01 6 5.02 6 4 C3.525 3.505 3.525 3.505 1 3 C0.67 2.01 0.34 1.02 0 0 Z " fill="#EB3630" transform="translate(180,349)"/>
<path d="M0 0 C2.21484375 1.015625 2.21484375 1.015625 4 2 C4.07587458 9.22649432 4.12852551 16.45288649 4.16479492 23.6796875 C4.17990988 26.13968748 4.20040227 28.59966041 4.22631836 31.05957031 C4.2625823 34.58926052 4.27969914 38.11859544 4.29296875 41.6484375 C4.30845261 42.75367767 4.32393646 43.85891785 4.33988953 44.99765015 C4.34011612 46.01855743 4.34034271 47.03946472 4.34057617 48.09130859 C4.34723801 48.99287689 4.35389984 49.89444519 4.36076355 50.82333374 C4.24171158 51.54163361 4.12265961 52.25993347 4 53 C0.76085771 55.15942819 -0.24859733 55.27232978 -4 55.25 C-4.86625 55.25515625 -5.7325 55.2603125 -6.625 55.265625 C-9 55 -9 55 -12 53 C-12.36076355 50.82333374 -12.36076355 50.82333374 -12.34057617 48.09130859 C-12.34034958 47.07040131 -12.34012299 46.04949402 -12.33988953 44.99765015 C-12.32440567 43.89240997 -12.30892181 42.7871698 -12.29296875 41.6484375 C-12.28872391 40.5192691 -12.28447906 39.39010071 -12.28010559 38.22671509 C-12.26327132 34.60923727 -12.22560975 30.99231031 -12.1875 27.375 C-12.17245934 24.92709136 -12.15876986 22.47917402 -12.14648438 20.03125 C-12.11335227 14.0206444 -12.06310579 8.01036154 -12 2 C-7.76143786 0.16789424 -4.65062836 -0.33822752 0 0 Z " fill="#EF312A" transform="translate(340,347)"/>
<path d="M0 0 C0.45375 0.474375 0.9075 0.94875 1.375 1.4375 C2.93258204 3.09027808 2.93258204 3.09027808 5 4 C5.33 4.66 5.66 5.32 6 6 C8.47266765 5.65555119 8.47266765 5.65555119 11 5 C11.33 4.34 11.66 3.68 12 3 C13.32 3 14.64 3 16 3 C16.33 2.34 16.66 1.68 17 1 C20.96 1.33 24.92 1.66 29 2 C29 2.33 29 2.66 29 3 C28.33613281 3.02578125 27.67226563 3.0515625 26.98828125 3.078125 C21.50028833 3.43063841 17.89137355 3.74381018 14 8 C11.32750864 11.56332181 11.47994518 15.72399369 12 20 C13.29338351 23.73644125 14.63727809 25.65541418 17.5 28.375 C22.3713971 30.63672008 26.71634623 30.33845469 32 30 C32 30.66 32 31.32 32 32 C30.35 32 28.7 32 27 32 C28.134375 32.309375 29.26875 32.61875 30.4375 32.9375 C34 34 34 34 35 35 C35.33 35.66 35.66 36.32 36 37 C38.02463255 37.65213292 38.02463255 37.65213292 40 38 C39.67 38.99 39.34 39.98 39 41 C38.01 41 37.02 41 36 41 C35.319375 41.474375 34.63875 41.94875 33.9375 42.4375 C27.66658968 45.7730906 20.78907631 45.42709617 14.05078125 43.6796875 C11.20374768 42.73609923 8.60841971 41.47141624 6 40 C6 39.34 6 38.68 6 38 C5.34 38 4.68 38 4 38 C4 37.34 4 36.68 4 36 C3.34 36 2.68 36 2 36 C-4.12967741 28.33790324 -4.87009666 19.54547217 -4 10 C-3.08033775 6.44472031 -1.64241618 3.28483235 0 0 Z " fill="#EA3A34" transform="translate(266,358)"/>
<path d="M0 0 C0.66 0.61875 1.32 1.2375 2 1.875 C2 2.535 2 3.195 2 3.875 C0.35 3.875 -1.3 3.875 -3 3.875 C-3.495 1.895 -3.495 1.895 -4 -0.125 C-4.28875 1.009375 -4.5775 2.14375 -4.875 3.3125 C-5.24625 4.488125 -5.6175 5.66375 -6 6.875 C-6.66 7.205 -7.32 7.535 -8 7.875 C-7.34 8.865 -6.68 9.855 -6 10.875 C-5.43147355 14.20245161 -5.35041761 17.56817486 -5.1875 20.9375 C-5.12369141 21.86111328 -5.05988281 22.78472656 -4.99414062 23.73632812 C-4.94837891 24.61869141 -4.90261719 25.50105469 -4.85546875 26.41015625 C-4.78815552 27.62264038 -4.78815552 27.62264038 -4.71948242 28.85961914 C-4.81205322 29.52469482 -4.90462402 30.18977051 -5 30.875 C-5.99 31.535 -6.98 32.195 -8 32.875 C-8.66 32.215 -9.32 31.555 -10 30.875 C-9.34 29.885 -8.68 28.895 -8 27.875 C-7.60559412 24.84526546 -7.60559412 24.84526546 -7.625 21.5 C-7.58246094 19.81777344 -7.58246094 19.81777344 -7.5390625 18.1015625 C-8.09305481 14.2236163 -9.27195304 12.63280747 -12 9.875 C-16.71918382 7.51540809 -20.99999798 7.45634863 -26 8.875 C-28.224089 10.03887708 -30.00309269 11.32739683 -32 12.875 C-32 10.54166667 -32 8.20833333 -32 5.875 C-32.33 6.865 -32.66 7.855 -33 8.875 C-35.0625 10.5625 -35.0625 10.5625 -37 11.875 C-37 11.215 -37 10.555 -37 9.875 C-37.66 9.545 -38.32 9.215 -39 8.875 C-38.01 6.895 -37.02 4.915 -36 2.875 C-38.87090587 3.27098702 -39.78915127 3.6073843 -41.625 5.9375 C-42.07875 6.576875 -42.5325 7.21625 -43 7.875 C-43.66 7.875 -44.32 7.875 -45 7.875 C-45 9.525 -45 11.175 -45 12.875 C-45.66 12.545 -46.32 12.215 -47 11.875 C-46.67 10.225 -46.34 8.575 -46 6.875 C-45.34 6.875 -44.68 6.875 -44 6.875 C-43.835 6.17375 -43.67 5.4725 -43.5 4.75 C-40.93008988 -0.17566106 -36.30409177 -2.94485544 -31.4375 -5.4375 C-19.69873167 -8.74843466 -9.78499787 -6.93104016 0 0 Z " fill="#EE3A34" transform="translate(398,353.125)"/>
<path d="M0 0 C-0.165 0.78375 -0.33 1.5675 -0.5 2.375 C-1.0623707 4.88208039 -1.0623707 4.88208039 -1 7 C0.32 6.67 1.64 6.34 3 6 C3.33 4.68 3.66 3.36 4 2 C5 3 5 3 5.125 5.3125 C4.96127745 8.83253479 4.1111403 11.66657909 3 15 C2.8656079 18.56139073 2.96528978 21.79559539 3.5625 25.3125 C4 28 4 28 3 30 C3.66 30 4.32 30 5 30 C6.2890625 31.75 6.2890625 31.75 7.625 34 C8.07101562 34.7425 8.51703125 35.485 8.9765625 36.25 C9.48316406 37.11625 9.48316406 37.11625 10 38 C6.84997012 39.57501494 3.51174178 40.02154443 0 40 C-2 38.5625 -2 38.5625 -3 37 C-2.67 36.01 -2.34 35.02 -2 34 C-3.32 34 -4.64 34 -6 34 C-6.33 33.34 -6.66 32.68 -7 32 C-7.66 32 -8.32 32 -9 32 C-9 31.34 -9 30.68 -9 30 C-9.66 30 -10.32 30 -11 30 C-13.39900513 22.80298461 -12.84349132 16.47743661 -12 9 C-11.34 9 -10.68 9 -10 9 C-9.9071875 8.1646875 -9.9071875 8.1646875 -9.8125 7.3125 C-8.04510305 2.28221638 -5.23229219 0 0 0 Z " fill="#EC332D" transform="translate(362,356)"/>
<path d="M0 0 C14.52 0 29.04 0 44 0 C44 3.3 44 6.6 44 10 C28.16 10.495 28.16 10.495 12 11 C10.33106898 15.97626882 10.33106898 15.97626882 9 21 C6.51112628 16.31506124 7.14312227 13.0555786 8 8 C6.35 8.66 4.7 9.32 3 10 C2.67 8.35 2.34 6.7 2 5 C1.34 5 0.68 5 0 5 C0 3.35 0 1.7 0 0 Z " fill="#F02F29" transform="translate(97,331)"/>
<path d="M0 0 C0 0.99 0 1.98 0 3 C0.66 3 1.32 3 2 3 C2 4.32 2 5.64 2 7 C1.34 7 0.68 7 0 7 C0 7.66 0 8.32 0 9 C0.66 9 1.32 9 2 9 C1.67 9.66 1.34 10.32 1 11 C0.34 10.67 -0.32 10.34 -1 10 C-3.85233245 18.55699734 -1.0386375 26.96122513 1.72265625 35.140625 C2 37 2 37 0 40 C-2.95034182 41.00932746 -4.3979332 41.24408113 -7.3125 40.0625 C-8.1478125 39.5365625 -8.1478125 39.5365625 -9 39 C-9 38.34 -9 37.68 -9 37 C-9.66 37 -10.32 37 -11 37 C-10.95875 35.906875 -10.9175 34.81375 -10.875 33.6875 C-10.67925334 29.91107771 -10.67925334 29.91107771 -13 27 C-13.16986115 24.33404365 -13.23306051 21.78669298 -13.1875 19.125 C-13.18685547 18.41730469 -13.18621094 17.70960938 -13.18554688 16.98046875 C-13.15388927 13.20266084 -12.90008547 9.6723487 -12 6 C-11.34 6 -10.68 6 -10 6 C-9.95875 5.401875 -9.9175 4.80375 -9.875 4.1875 C-9 2 -9 2 -6.125 0.1875 C-3 -1 -3 -1 0 0 Z " fill="#F13029" transform="translate(216,355)"/>
<path d="M0 0 C0.66 0.33 1.32 0.66 2 1 C2.7109375 3.14453125 2.7109375 3.14453125 3.375 5.8125 C4.52258722 9.86962652 5.46163059 12.45679699 9 15 C13.77364362 16.59121454 18.15016855 16.79879085 22.75 14.8125 C25.265046 12.78649072 27.10009368 10.60357533 29 8 C29.66 11.3 30.32 14.6 31 18 C30.01 18.66 29.02 19.32 28 20 C27.34 19.67 26.68 19.34 26 19 C26.33 19.99 26.66 20.98 27 22 C27 22.66 27 23.32 27 24 C28.98 24 30.96 24 33 24 C32.505 22.515 32.505 22.515 32 21 C32.99 20.34 33.98 19.68 35 19 C35.66 19.33 36.32 19.66 37 20 C37 19.34 37 18.68 37 18 C37.99 18.33 38.98 18.66 40 19 C35.56923077 24.78461538 35.56923077 24.78461538 32.6875 25.875 C32.130625 25.91625 31.57375 25.9575 31 26 C31 26.66 31 27.32 31 28 C23.95666639 31.23648475 15.02442886 31.94861252 7.4375 30.3125 C3.97420924 28.99015262 1.69333809 27.52500446 -1 25 C0.093125 24.95875 1.18625 24.9175 2.3125 24.875 C6.24996333 24.39434602 6.24996333 24.39434602 7.9375 20.9375 C8.288125 19.968125 8.63875 18.99875 9 18 C8.01 17.67 7.02 17.34 6 17 C5.67 16.34 5.34 15.68 5 15 C4.01 15 3.02 15 2 15 C2.04125 14.2575 2.0825 13.515 2.125 12.75 C2.19392766 10.04468892 2.19392766 10.04468892 1 8.0625 C-0.33343743 5.3122853 -0.1370035 3.01407708 0 0 Z " fill="#E9403A" transform="translate(152,372)"/>
<path d="M0 0 C-1.485 2.475 -1.485 2.475 -3 5 C-2.01 5 -1.02 5 0 5 C0.66 3.68 1.32 2.36 2 1 C2.99 1.33 3.98 1.66 5 2 C5.33 1.34 5.66 0.68 6 0 C7.9375 0.75 7.9375 0.75 10 2 C10.75 4.125 10.75 4.125 11 6 C11.66 6 12.32 6 13 6 C14.98362069 8.91708924 14.9876191 10.12380904 14.625 13.75 C14.315625 15.35875 14.315625 15.35875 14 17 C14.66 17 15.32 17 16 17 C16.33 16.01 16.66 15.02 17 14 C19.09678815 17.40728075 19.4133256 20.03207421 19 24 C17.625 26.125 17.625 26.125 16 28 C15.30419733 29.31836295 14.62775567 30.64791086 14 32 C12.35 31.67 10.7 31.34 9 31 C8.89042969 30.09636719 8.78085938 29.19273437 8.66796875 28.26171875 C8.50941406 27.08222656 8.35085937 25.90273438 8.1875 24.6875 C8.03667969 23.51574219 7.88585937 22.34398437 7.73046875 21.13671875 C7.00135005 18.00579726 6.50828536 16.90354807 4 15 C4.66 13.35 5.32 11.7 6 10 C5.67 10.33 5.34 10.66 5 11 C1.96688163 12.51655919 -0.23549875 11.52390127 -3.5 10.8125 C-4.6653125 10.57144531 -5.830625 10.33039063 -7.03125 10.08203125 C-10 9 -10 9 -11.40625 6.88671875 C-11.70015625 5.95279297 -11.70015625 5.95279297 -12 5 C-12.66 5 -13.32 5 -14 5 C-14.33 3.68 -14.66 2.36 -15 1 C-9.675665 -1.32086397 -5.56157448 -0.91457003 0 0 Z " fill="#F02F29" transform="translate(236,349)"/>
<path d="M0 0 C0 0.99 0 1.98 0 3 C-0.639375 3.12375 -1.27875 3.2475 -1.9375 3.375 C-2.618125 3.58125 -3.29875 3.7875 -4 4 C-4.33 4.66 -4.66 5.32 -5 6 C-5.99 6 -6.98 6 -8 6 C-7.67 4.68 -7.34 3.36 -7 2 C-11.3164922 1.23826608 -14.74433453 0.83936396 -19 2 C-19 3.32 -19 4.64 -19 6 C-18.34 6 -17.68 6 -17 6 C-16.01 7.485 -16.01 7.485 -15 9 C-11.66772638 10.02672001 -11.66772638 10.02672001 -7.875 10.6875 C-6.59367187 10.93886719 -5.31234375 11.19023437 -3.9921875 11.44921875 C-2.51105469 11.72185547 -2.51105469 11.72185547 -1 12 C-0.67 11.34 -0.34 10.68 0 10 C0.66 10.33 1.32 10.66 2 11 C1.505 12.175625 1.505 12.175625 1 13.375 C-0.11866511 15.84332497 -0.11866511 15.84332497 0 18 C0.99 18.33 1.98 18.66 3 19 C2.67 22.96 2.34 26.92 2 31 C1.67 31 1.34 31 1 31 C0.97421875 30.34773438 0.9484375 29.69546875 0.921875 29.0234375 C0.55281797 23.33660416 0.02243205 19.34857519 -4 15 C-8.87965578 12.38995156 -13.74109032 12.74265158 -19 14 C-21.49807812 15.38518644 -21.49807812 15.38518644 -23 17 C-23.66 16.67 -24.32 16.34 -25 16 C-25 15.34 -25 14.68 -25 14 C-24.34 14 -23.68 14 -23 14 C-23 12.68 -23 11.36 -23 10 C-23.99 10.33 -24.98 10.66 -26 11 C-26 9.68 -26 8.36 -26 7 C-28.64 7.66 -31.28 8.32 -34 9 C-34.33 10.32 -34.66 11.64 -35 13 C-35.66 13 -36.32 13 -37 13 C-36.814375 13.639375 -36.62875 14.27875 -36.4375 14.9375 C-36.293125 15.618125 -36.14875 16.29875 -36 17 C-36.33 17.33 -36.66 17.66 -37 18 C-37.08631874 19.34267413 -37.10706473 20.68974322 -37.09765625 22.03515625 C-37.09443359 22.84404297 -37.09121094 23.65292969 -37.08789062 24.48632812 C-37.07951172 25.33646484 -37.07113281 26.18660156 -37.0625 27.0625 C-37.05798828 27.91650391 -37.05347656 28.77050781 -37.04882812 29.65039062 C-37.03700373 31.76695663 -37.01906769 33.88348685 -37 36 C-36.34 36.33 -35.68 36.66 -35 37 C-35.495 39.475 -35.495 39.475 -36 42 C-39.10518427 39.74168417 -39.85779038 36.96310551 -40.6484375 33.3046875 C-41.93152647 24.8933265 -41.30602851 17.08761054 -36.59375 9.8359375 C-31.44375209 3.34985523 -25.15666598 0.02213098 -17.1875 -1.9375 C-11.4347687 -2.38822946 -5.63375223 -1.03915247 0 0 Z " fill="#E4433E" transform="translate(241,348)"/>
<path d="M0 0 C0.33 0 0.66 0 1 0 C1 1.98 1 3.96 1 6 C1.99 6 2.98 6 4 6 C4 6.99 4 7.98 4 9 C4.99 9.66 5.98 10.32 7 11 C7 11.66 7 12.32 7 13 C8.98 13 10.96 13 13 13 C12.67 13.99 12.34 14.98 12 16 C13.32 15.34 14.64 14.68 16 14 C16 12.68 16 11.36 16 10 C16.66 9.67 17.32 9.34 18 9 C17.34 8.67 16.68 8.34 16 8 C16 6.35 16 4.7 16 3 C16.928125 3.66 17.85625 4.32 18.8125 5 C23.6570211 7.83095472 28.55522975 7.35445159 34 7 C34 7.66 34 8.32 34 9 C32.35 9 30.7 9 29 9 C30.7015625 9.4640625 30.7015625 9.4640625 32.4375 9.9375 C36 11 36 11 37 12 C37.495 12.99 37.495 12.99 38 14 C40.02463255 14.65213292 40.02463255 14.65213292 42 15 C41.67 15.99 41.34 16.98 41 18 C40.01 18 39.02 18 38 18 C37.319375 18.474375 36.63875 18.94875 35.9375 19.4375 C29.66658968 22.7730906 22.78907631 22.42709617 16.05078125 20.6796875 C13.20374768 19.73609923 10.60841971 18.47141624 8 17 C8 16.34 8 15.68 8 15 C7.34 15 6.68 15 6 15 C6 14.34 6 13.68 6 13 C5.34 13 4.68 13 4 13 C0.93406654 9.09790287 -0.65292143 5.97479289 -1 1 C-0.67 0.67 -0.34 0.34 0 0 Z " fill="#E93D37" transform="translate(264,381)"/>
<path d="M0 0 C0.66 0.33 1.32 0.66 2 1 C2 1.66 2 2.32 2 3 C5.77222089 4.75163456 8.666639 5.22490027 12.8125 5.125 C13.78832031 5.10695313 14.76414062 5.08890625 15.76953125 5.0703125 C16.50558594 5.04710937 17.24164063 5.02390625 18 5 C17.67 5.99 17.34 6.98 17 8 C17.99 7.67 18.98 7.34 20 7 C19.7215625 8.670625 19.7215625 8.670625 19.4375 10.375 C18.68319343 13.82568861 18.68319343 13.82568861 20 16 C19.67 16.66 19.34 17.32 19 18 C19.99 18.33 20.98 18.66 22 19 C11.21319967 20.12110003 3.6843183 20.32637506 -6 15 C-6 14.34 -6 13.68 -6 13 C-6.66 13 -7.32 13 -8 13 C-8 12.34 -8 11.68 -8 11 C-8.66 11 -9.32 11 -10 11 C-10 10.34 -10 9.68 -10 9 C-10.66 9 -11.32 9 -12 9 C-12.66 8.01 -13.32 7.02 -14 6 C-13.67 5.01 -13.34 4.02 -13 3 C-13 3.66 -13 4.32 -13 5 C-12.01 4.67 -11.02 4.34 -10 4 C-10 4.99 -10 5.98 -10 7 C-8.68 7 -7.36 7 -6 7 C-6 8.32 -6 9.64 -6 11 C-2.30458414 11.95024979 0.30458414 11.95024979 4 11 C4.2 8.85 4.2 8.85 2.5 7 C1 5 1 5 1 3 C0.34 3 -0.32 3 -1 3 C-0.67 2.01 -0.34 1.02 0 0 Z " fill="#EA413C" transform="translate(366,383)"/>
<path d="M0 0 C8.61332778 4.87575876 15.26847163 11.32553132 20 20 C19.34 20.66 18.68 21.32 18 22 C18 21.34 18 20.68 18 20 C16.68 20 15.36 20 14 20 C12.64560332 17.29120665 12.93498549 14.99066732 13 12 C10.69 11.34 8.38 10.68 6 10 C6.33 9.01 6.66 8.02 7 7 C6.01 7 5.02 7 4 7 C4.495 9.475 4.495 9.475 5 12 C3.68 12.33 2.36 12.66 1 13 C1.495 14.485 1.495 14.485 2 16 C1.34 16.99 0.68 17.98 0 19 C-0.61746094 18.52949219 -1.23492187 18.05898437 -1.87109375 17.57421875 C-13.49544535 9.02846255 -22.89202651 8.26784968 -37 9 C-37.99 9.33 -38.98 9.66 -40 10 C-43.5625 10.25 -43.5625 10.25 -47 10 C-47.66 9.01 -48.32 8.02 -49 7 C-45.37 7.33 -41.74 7.66 -38 8 C-38 7.34 -38 6.68 -38 6 C-18.99544419 5.6309795 -18.99544419 5.6309795 -11 8 C-10.34 7.01 -9.68 6.02 -9 5 C-5.375 4.3125 -5.375 4.3125 -2 4 C-2 3.34 -2 2.68 -2 2 C-1.34 2 -0.68 2 0 2 C0 1.34 0 0.68 0 0 Z " fill="#E63D37" transform="translate(342,99)"/>
<path d="M0 0 C4.34263862 -0.16702456 7.20960634 -0.12999997 11 2 C11.07587458 9.22649432 11.12852551 16.45288649 11.16479492 23.6796875 C11.17990988 26.13968748 11.20040227 28.59966041 11.22631836 31.05957031 C11.2625823 34.58926052 11.27969914 38.11859544 11.29296875 41.6484375 C11.30845261 42.75367767 11.32393646 43.85891785 11.33988953 44.99765015 C11.34011612 46.01855743 11.34034271 47.03946472 11.34057617 48.09130859 C11.34723801 48.99287689 11.35389984 49.89444519 11.36076355 50.82333374 C11.24171158 51.54163361 11.12265961 52.25993347 11 53 C7.76085771 55.15942819 6.75140267 55.27232978 3 55.25 C2.13375 55.25515625 1.2675 55.2603125 0.375 55.265625 C-2 55 -2 55 -5 53 C-5.36076355 50.82333374 -5.36076355 50.82333374 -5.34057617 48.09130859 C-5.34034958 47.07040131 -5.34012299 46.04949402 -5.33988953 44.99765015 C-5.32440567 43.89240997 -5.30892181 42.7871698 -5.29296875 41.6484375 C-5.28872391 40.5192691 -5.28447906 39.39010071 -5.28010559 38.22671509 C-5.26327132 34.60923727 -5.22560975 30.99231031 -5.1875 27.375 C-5.17245934 24.92709136 -5.15876986 22.47917402 -5.14648438 20.03125 C-5.11335227 14.0206444 -5.06310579 8.01036154 -5 2 C-4.34 2 -3.68 2 -3 2 C-2.85466696 6.70979551 -2.71241405 11.41967153 -2.57275391 16.12963867 C-2.52505368 17.72471495 -2.47657852 19.31976829 -2.42724609 20.91479492 C-2.1072839 31.28091692 -1.93076088 41.62855711 -2 52 C1.3 52 4.6 52 8 52 C8 35.5 8 19 8 2 C5.03 2 2.06 2 -1 2 C-0.67 1.34 -0.34 0.68 0 0 Z " fill="#DF8380" transform="translate(333,347)"/>
<path d="M0 0 C15.51 0 31.02 0 47 0 C47 3.96 47 7.92 47 12 C46 13 46 13 43.04077148 13.11352539 C41.74727783 13.10828857 40.45378418 13.10305176 39.12109375 13.09765625 C38.09110008 13.09553383 38.09110008 13.09553383 37.04029846 13.09336853 C34.83932199 13.08775479 32.63844591 13.07520007 30.4375 13.0625 C28.94856917 13.05748676 27.45963676 13.05292355 25.97070312 13.04882812 C22.31376925 13.03778093 18.65689442 13.02050713 15 13 C15 15.97 15 18.94 15 22 C13.68 20.35 12.36 18.7 11 17 C11.99 15.02 12.98 13.04 14 11 C24.56 11 35.12 11 46 11 C46 7.7 46 4.4 46 1 C31.48 1 16.96 1 2 1 C2.020625 6.094375 2.04125 11.18875 2.0625 16.4375 C2.0967195 33.97457633 1.65025703 51.47591891 1 69 C0.67 69 0.34 69 0 69 C0 46.23 0 23.46 0 0 Z " fill="#BD3A33" transform="translate(95,330)"/>
<path d="M0 0 C1.77074917 -0.02705729 3.54161711 -0.04642195 5.3125 -0.0625 C6.29863281 -0.07410156 7.28476562 -0.08570313 8.30078125 -0.09765625 C11 0 11 0 14 1 C14 1.99 14 2.98 14 4 C13.01 4 12.02 4 11 4 C11 5.65 11 7.3 11 9 C7.37 9.33 3.74 9.66 0 10 C-0.33 10.99 -0.66 11.98 -1 13 C-2.65 13.33 -4.3 13.66 -6 14 C-5.34 14.33 -4.68 14.66 -4 15 C-6.64 15.33 -9.28 15.66 -12 16 C-13.54571278 13.68143083 -14.79618552 11.49361571 -16 9 C-15.20335937 8.63648438 -15.20335937 8.63648438 -14.390625 8.265625 C-9.72352361 6.06653926 -9.72352361 6.06653926 -5.875 2.6875 C-5.25625 2.130625 -4.6375 1.57375 -4 1 C-0.8125 1.3125 -0.8125 1.3125 2 2 C2.33 1.67 2.66 1.34 3 1 C2.01 0.67 1.02 0.34 0 0 Z " fill="#F13029" transform="translate(283,349)"/>
<path d="M0 0 C3.88265681 0.72799815 5.46228253 1.50231129 8 4.5625 C8.58947938 7.64336395 8.67794648 10.49479219 8 13.5625 C6.42603193 15.75919064 5.53700078 16.45272636 2.87890625 16.99609375 C-0.88642847 17.00244339 -3.29289169 16.9936636 -6.5625 15 C-8.58925458 11.56332919 -8.6198676 9.48832814 -8 5.5625 C-5.54999553 2.17572911 -4.13607554 0.77551416 0 0 Z " fill="#EE302A" transform="translate(336,325.4375)"/>
<path d="M0 0 C0.66 0.33 1.32 0.66 2 1 C-1.83936145 6.4144841 -5.84924977 11.75195857 -11 16 C-11.66 16 -12.32 16 -13 16 C-13 16.66 -13 17.32 -13 18 C-14.45537568 18.83848804 -15.91440373 19.67063934 -17.375 20.5 C-18.18710937 20.9640625 -18.99921875 21.428125 -19.8359375 21.90625 C-22 23 -22 23 -24 23 C-23.67 22.01 -23.34 21.02 -23 20 C-22.34 20 -21.68 20 -21 20 C-20.67 19.01 -20.34 18.02 -20 17 C-19.34 17 -18.68 17 -18 17 C-18.33 15.02 -18.66 13.04 -19 11 C-19.99 11 -20.98 11 -22 11 C-22 10.34 -22 9.68 -22 9 C-22.598125 9.33 -23.19625 9.66 -23.8125 10 C-26 11 -26 11 -29 11 C-29 10.34 -29 9.68 -29 9 C-26.57081511 7.59854718 -24.73699299 6.95706008 -21.9375 6.5 C-18.82081209 6.17464307 -18.82081209 6.17464307 -16 4 C-15.54625 4.495 -15.0925 4.99 -14.625 5.5 C-13.12364481 7.22609337 -13.12364481 7.22609337 -11 7 C-10.67 5.68 -10.34 4.36 -10 3 C-9.34 3 -8.68 3 -8 3 C-7.67 3.99 -7.34 4.98 -7 6 C-6.34 6 -5.68 6 -5 6 C-4.9175 5.38125 -4.835 4.7625 -4.75 4.125 C-4 2 -4 2 -2.0625 0.6875 C-1.381875 0.460625 -0.70125 0.23375 0 0 Z " fill="#EA342E" transform="translate(360,171)"/>
<path d="M0 0 C4.91388704 1.74550533 9.19057428 4.42866339 13 8 C13 8.66 13 9.32 13 10 C11.35 10 9.7 10 8 10 C7.67 8.68 7.34 7.36 7 6 C6.71125 7.134375 6.4225 8.26875 6.125 9.4375 C5.75375 10.613125 5.3825 11.78875 5 13 C4.01 13.495 4.01 13.495 3 14 C3.99 15.485 3.99 15.485 5 17 C5.56852645 20.32745161 5.64958239 23.69317486 5.8125 27.0625 C5.87630859 27.98611328 5.94011719 28.90972656 6.00585938 29.86132812 C6.05162109 30.74369141 6.09738281 31.62605469 6.14453125 32.53515625 C6.21184448 33.74764038 6.21184448 33.74764038 6.28051758 34.98461914 C6.18794678 35.64969482 6.09537598 36.31477051 6 37 C5.01 37.66 4.02 38.32 3 39 C2.34 38.34 1.68 37.68 1 37 C1.66 36.01 2.32 35.02 3 34 C3.39440588 30.97026546 3.39440588 30.97026546 3.375 27.625 C3.41753906 25.94277344 3.41753906 25.94277344 3.4609375 24.2265625 C2.90555498 20.33888485 1.76005609 18.74521708 -1 16 C-4.12133744 14.65227097 -4.12133744 14.65227097 -7 14 C-5 12.66666667 -3 11.33333333 -1 10 C-1.66 9.67 -2.32 9.34 -3 9 C-3 8.34 -3 7.68 -3 7 C-2.34 7 -1.68 7 -1 7 C-1 6.01 -1 5.02 -1 4 C-5.62 3.01 -10.24 2.02 -15 1 C-9.65509355 -1.67245323 -5.77022972 -1.1108891 0 0 Z " fill="#ED403B" transform="translate(387,347)"/>
<path d="M0 0 C1.27875 -0.061875 2.5575 -0.12375 3.875 -0.1875 C4.95394531 -0.23970703 4.95394531 -0.23970703 6.0546875 -0.29296875 C6.69664062 -0.19628906 7.33859375 -0.09960938 8 0 C8.66 0.99 9.32 1.98 10 3 C10.680625 3.165 11.36125 3.33 12.0625 3.5 C12.701875 3.665 13.34125 3.83 14 4 C14.33 4.99 14.66 5.98 15 7 C15.66 7.33 16.32 7.66 17 8 C16.67 8.66 16.34 9.32 16 10 C15.34 9.67 14.68 9.34 14 9 C14 9.66 14 10.32 14 11 C13.34 11.66 12.68 12.32 12 13 C11.83312552 15.58354218 11.83312552 15.58354218 12 18 C11.34 18 10.68 18 10 18 C7 14.53846154 7 14.53846154 7 12 C2.71 11.67 -1.58 11.34 -6 11 C-5.67 9.68 -5.34 8.36 -5 7 C-4.34 6.67 -3.68 6.34 -3 6 C-1.90833725 4.06669397 -1.90833725 4.06669397 -1 2 C-0.67 1.34 -0.34 0.68 0 0 Z " fill="#ED312A" transform="translate(172,349)"/>
<path d="M0 0 C0.66 0 1.32 0 2 0 C2.33 1.32 2.66 2.64 3 4 C3.99 3.01 4.98 2.02 6 1 C6.99 1.33 7.98 1.66 9 2 C8.34 2 7.68 2 7 2 C7 2.99 7 3.98 7 5 C8.98 5.66 10.96 6.32 13 7 C11.3125 9.5 11.3125 9.5 9 12 C6.25 12.3125 6.25 12.3125 4 12 C4 12.66 4 13.32 4 14 C2.68 14 1.36 14 0 14 C-0.33 14.66 -0.66 15.32 -1 16 C-4.0625 16.625 -4.0625 16.625 -7 17 C-7.92470553 12.28400182 -8.22923777 9.32734391 -6 5 C-4.68 5 -3.36 5 -2 5 C-1.34 3.35 -0.68 1.7 0 0 Z " fill="#F12F28" transform="translate(225,67)"/>
<path d="M0 0 C2.0625 0.1875 2.0625 0.1875 4 1 C5.33275944 4.99827832 5.08382656 8.80507302 5.02172852 12.96948242 C5.0073172 14.34539299 5.0073172 14.34539299 4.99261475 15.74909973 C4.95960224 18.7846336 4.91927836 21.82002457 4.87890625 24.85546875 C4.85460734 26.95867914 4.83076367 29.06189484 4.80735779 31.16511536 C4.74449409 36.70374591 4.67543384 42.24228267 4.60510254 47.78082275 C4.53443978 53.4313123 4.46961049 59.08186841 4.40429688 64.73242188 C4.27525505 75.82168773 4.13966984 86.91086327 4 98 C3.67 98 3.34 98 3 98 C3 66.65 3 35.3 3 3 C1.35 2.67 -0.3 2.34 -2 2 C-1.34 1.34 -0.68 0.68 0 0 Z " fill="#C35E57" transform="translate(166,193)"/>
<path d="M0 0 C3.88265681 0.72799815 5.46228253 1.50231129 8 4.5625 C8.58947938 7.64336395 8.67794648 10.49479219 8 13.5625 C6.42603193 15.75919064 5.53700078 16.45272636 2.87890625 16.99609375 C-0.88642847 17.00244339 -3.29289169 16.9936636 -6.5625 15 C-8.58925458 11.56332919 -8.6198676 9.48832814 -8 5.5625 C-5.54999553 2.17572911 -4.13607554 0.77551416 0 0 Z M-6 4.5625 C-6.061875 5.84125 -6.12375 7.12 -6.1875 8.4375 C-6.22230469 9.15679687 -6.25710938 9.87609375 -6.29296875 10.6171875 C-6.19628906 11.25914062 -6.09960938 11.90109375 -6 12.5625 C-2.32653229 15.01147847 -0.33643601 14.87787716 4 14.5625 C4.66 13.9025 5.32 13.2425 6 12.5625 C6.02308597 10.34121445 6.02308597 10.34121445 5.625 7.9375 C5.51414062 7.12023437 5.40328125 6.30296875 5.2890625 5.4609375 C5.19367188 4.83445312 5.09828125 4.20796875 5 3.5625 C-0.77786722 2.36465775 -0.77786722 2.36465775 -6 4.5625 Z " fill="#DB6A68" transform="translate(336,325.4375)"/>
<path d="M0 0 C0.33 0.99 0.66 1.98 1 3 C0.01 3.33 -0.98 3.66 -2 4 C-2.73323796 6.01508358 -2.73323796 6.01508358 -3 8 C-3.66 8 -4.32 8 -5 8 C-4.814375 8.639375 -4.62875 9.27875 -4.4375 9.9375 C-4.293125 10.618125 -4.14875 11.29875 -4 12 C-4.33 12.33 -4.66 12.66 -5 13 C-5.08631874 14.34267413 -5.10706473 15.68974322 -5.09765625 17.03515625 C-5.09443359 17.84404297 -5.09121094 18.65292969 -5.08789062 19.48632812 C-5.07951172 20.33646484 -5.07113281 21.18660156 -5.0625 22.0625 C-5.05798828 22.91650391 -5.05347656 23.77050781 -5.04882812 24.65039062 C-5.03700373 26.76695663 -5.01906769 28.88348685 -5 31 C-4.34 31.33 -3.68 31.66 -3 32 C-3.495 34.475 -3.495 34.475 -4 37 C-7.10518427 34.74168417 -7.85779038 31.96310551 -8.6484375 28.3046875 C-9.90527923 20.0653917 -9.49551724 11.82078969 -4.46484375 4.8828125 C-3.02870914 3.19204409 -1.5631219 1.5732392 0 0 Z " fill="#DE5651" transform="translate(209,353)"/>
<path d="M0 0 C0.66 0.99 1.32 1.98 2 3 C1.67 3.66 1.34 4.32 1 5 C1.99 5.33 2.98 5.66 4 6 C3.01 6.33 2.02 6.66 1 7 C1.20625 7.61875 1.4125 8.2375 1.625 8.875 C1.74875 9.57625 1.8725 10.2775 2 11 C1.34 11.66 0.68 12.32 0 13 C-0.99 13 -1.98 13 -3 13 C-3.33 12.34 -3.66 11.68 -4 11 C-4.639375 10.855625 -5.27875 10.71125 -5.9375 10.5625 C-8 10 -8 10 -10 7 C-9.67 6.01 -9.34 5.02 -9 4 C-8.34 4 -7.68 4 -7 4 C-5.76901371 3.37615174 -4.56223782 2.70354833 -3.375 2 C-2.26125 1.34 -1.1475 0.68 0 0 Z " fill="#EF3029" transform="translate(279,384)"/>
<path d="M0 0 C0.66 0 1.32 0 2 0 C2 0.66 2 1.32 2 2 C2.66 2 3.32 2 4 2 C4 2.66 4 3.32 4 4 C4.66 4 5.32 4 6 4 C10.46760888 11.2970945 13.16998392 18.33395634 12 27 C10.88068405 30.7618749 9.51524026 34.38101098 8 38 C7.05415993 34.95082327 6.99048064 34.03236583 7.9375 30.8125 C9.32996705 25.81600057 10.16104055 20.59447907 7.984375 15.73046875 C7.65953125 15.15941406 7.3346875 14.58835937 7 14 C6.01 14 5.02 14 4 14 C3 11 3 11 3.5 9.0625 C4.07702481 6.68227266 3.74022853 5.30293321 3 3 C2.34 3 1.68 3 1 3 C0.67 2.01 0.34 1.02 0 0 Z " fill="#D87C76" transform="translate(246,352)"/>
<path d="M0 0 C0 0.99 0 1.98 0 3 C-2.31 3 -4.62 3 -7 3 C-6.01 3.33 -5.02 3.66 -4 4 C-4 4.66 -4 5.32 -4 6 C-4.99 6.495 -4.99 6.495 -6 7 C-6.65213292 9.02463255 -6.65213292 9.02463255 -7 11 C-8.65 10.67 -10.3 10.34 -12 10 C-12.33 8.68 -12.66 7.36 -13 6 C-13.33 6.99 -13.66 7.98 -14 9 C-14.66 9 -15.32 9 -16 9 C-16.66 7.35 -17.32 5.7 -18 4 C-11.94636214 1.15849651 -6.76171161 0 0 0 Z " fill="#EC3A35" transform="translate(244,62)"/>
<path d="M0 0 C10.56 0 21.12 0 32 0 C32 0.66 32 1.32 32 2 C21.77 2 11.54 2 1 2 C1 4.97 1 7.94 1 11 C-0.32 9.35 -1.64 7.7 -3 6 C-2.01 4.02 -1.02 2.04 0 0 Z " fill="#D95650" transform="translate(109,341)"/>
<path d="M0 0 C7.00220186 0.49867313 7.00220186 0.49867313 9.3046875 2.59765625 C10.3828125 4.25 10.3828125 4.25 11.7578125 7.1875 C8.60778262 8.76251494 5.26955428 9.20904443 1.7578125 9.1875 C-0.2421875 7.75 -0.2421875 7.75 -1.2421875 6.1875 C-0.9121875 5.1975 -0.5821875 4.2075 -0.2421875 3.1875 C-1.5621875 2.8575 -2.8821875 2.5275 -4.2421875 2.1875 C-2.2421875 0.1875 -2.2421875 0.1875 0 0 Z " fill="#F22F29" transform="translate(360.2421875,386.8125)"/>
<path d="M0 0 C0.33 0 0.66 0 1 0 C1.19214323 4.80509958 1.37088308 9.61043783 1.53710938 14.41650391 C1.59558 16.05205718 1.65773919 17.68748287 1.72363281 19.32275391 C1.8176061 21.67066214 1.89838991 24.01870678 1.9765625 26.3671875 C2.00875885 27.10057343 2.0409552 27.83395935 2.0741272 28.58956909 C2.12756428 30.39242355 2.07280193 32.19782365 2 34 C0 36 0 36 -2.3125 36.23046875 C-3.199375 36.21628906 -4.08625 36.20210938 -5 36.1875 C-6.3303125 36.17783203 -6.3303125 36.17783203 -7.6875 36.16796875 C-10 36 -10 36 -12 35 C-12 34.34 -12 33.68 -12 33 C-8.04 33 -4.08 33 0 33 C0 22.11 0 11.22 0 0 Z " fill="#E83F3B" transform="translate(318,366)"/>
<path d="M0 0 C0.66 0 1.32 0 2 0 C2 1.32 2 2.64 2 4 C2.99 4.33 3.98 4.66 5 5 C5 5.66 5 6.32 5 7 C6.32 7.33 7.64 7.66 9 8 C7.4375 10.0625 7.4375 10.0625 5 12 C1.25 11.75 1.25 11.75 -2 11 C-2 10.34 -2 9.68 -2 9 C-2.66 9 -3.32 9 -4 9 C-2.94124926 5.59687262 -1.99097846 2.98646769 0 0 Z " fill="#F03028" transform="translate(153,382)"/>
<path d="M0 0 C2.475 0.99 2.475 0.99 5 2 C4.01 2.495 4.01 2.495 3 3 C2.34 2.67 1.68 2.34 1 2 C1.99 3.32 2.98 4.64 4 6 C3 7 2 8 1 9 C0.608125 9.598125 0.21625 10.19625 -0.1875 10.8125 C-2 12 -2 12 -3.96875 11.7421875 C-5.99888104 11.23465474 -8.00206261 10.62230837 -10 10 C-9.401875 9.443125 -8.80375 8.88625 -8.1875 8.3125 C-6.0136554 6.01443571 -4.53101917 3.75583451 -3 1 C-2.01 1.33 -1.02 1.66 0 2 C0 1.34 0 0.68 0 0 Z " fill="#F03A33" transform="translate(241,349)"/>
<path d="M0 0 C0.66 0 1.32 0 2 0 C1.938125 1.134375 1.87625 2.26875 1.8125 3.4375 C1.79564129 6.67437245 2.26178417 8.96113144 3.5 11.9375 C5.21221454 16.56291368 5.30426429 20.93747217 5.3125 25.8125 C5.31765625 26.5542749 5.3228125 27.2960498 5.328125 28.06030273 C5.27994296 31.84302346 5.11264709 34.79315322 3 38 C2.34 38 1.68 38 1 38 C1.16008545 37.42652832 1.3201709 36.85305664 1.48510742 36.26220703 C3.78014182 26.17885535 3.11196829 14.01266699 -2 5 C-2.33 4.34 -2.66 3.68 -3 3 C-2.01 3 -1.02 3 0 3 C0 2.01 0 1.02 0 0 Z " fill="#D6453D" transform="translate(350,121)"/>
<path d="M0 0 C4.96768758 1.55240237 9.17867057 4.51054781 13 8 C13 8.66 13 9.32 13 10 C13.66 10 14.32 10 15 10 C16.38232443 11.62626404 17.71937515 13.2925002 19 15 C18.67 15.66 18.34 16.32 18 17 C15.69 16.67 13.38 16.34 11 16 C10.855625 15.2575 10.71125 14.515 10.5625 13.75 C10.09812508 11.47972261 9.58136431 9.24240521 9 7 C7.88625 6.896875 6.7725 6.79375 5.625 6.6875 C3.830625 6.3471875 3.830625 6.3471875 2 6 C0 3 0 3 0 0 Z " fill="#E16561" transform="translate(280,70)"/>
<path d="M0 0 C0.66 0.33 1.32 0.66 2 1 C1.34 2.65 0.68 4.3 0 6 C-1.32 5.67 -2.64 5.34 -4 5 C-4.66 6.65 -5.32 8.3 -6 10 C-7.32 10 -8.64 10 -10 10 C-10.33 10.66 -10.66 11.32 -11 12 C-11.66 12 -12.32 12 -13 12 C-13 12.99 -13 13.98 -13 15 C-14.65 15 -16.3 15 -18 15 C-18 14.34 -18 13.68 -18 13 C-17.34 13 -16.68 13 -16 13 C-16 12.34 -16 11.68 -16 11 C-15.34 11 -14.68 11 -14 11 C-14 10.34 -14 9.68 -14 9 C-12.20703125 7.59765625 -12.20703125 7.59765625 -9.8125 6.0625 C-8.99265625 5.5365625 -8.1728125 5.010625 -7.328125 4.46875 C-6.55984375 3.9840625 -5.7915625 3.499375 -5 3 C-4.030625 2.360625 -3.06125 1.72125 -2.0625 1.0625 C-1.381875 0.711875 -0.70125 0.36125 0 0 Z " fill="#E05A57" transform="translate(223,67)"/>
<path d="M0 0 C2.97 0.495 2.97 0.495 6 1 C6 4 6 4 5 6 C2.9375 6.625 2.9375 6.625 1 7 C1 7.99 1 8.98 1 10 C-1.31 10.66 -3.62 11.32 -6 12 C-7.04449911 8.86650268 -6.93423645 8.01031744 -6 5 C-5.38125 4.9175 -4.7625 4.835 -4.125 4.75 C-1.81562433 4.18741541 -1.81562433 4.18741541 -0.75 1.9375 C-0.5025 1.298125 -0.255 0.65875 0 0 Z " fill="#EE3027" transform="translate(184,386)"/>
<path d="M0 0 C0.02687279 1.81242052 0.04633715 3.62495233 0.0625 5.4375 C0.07410156 6.44683594 0.08570313 7.45617187 0.09765625 8.49609375 C0 11 0 11 -1 12 C-2.85369611 12.08737645 -4.71067541 12.10698153 -6.56640625 12.09765625 C-7.69111328 12.09443359 -8.81582031 12.09121094 -9.97460938 12.08789062 C-11.15861328 12.07951172 -12.34261719 12.07113281 -13.5625 12.0625 C-14.75037109 12.05798828 -15.93824219 12.05347656 -17.16210938 12.04882812 C-20.10812226 12.03699675 -23.05403681 12.02051287 -26 12 C-26 11.67 -26 11.34 -26 11 C-18.08 11 -10.16 11 -2 11 C-2 9.68 -2 8.36 -2 7 C-3.32 6.67 -4.64 6.34 -6 6 C-6 5.01 -6 4.02 -6 3 C-5.34 2.67 -4.68 2.34 -4 2 C-6.97 1.505 -6.97 1.505 -10 1 C-10 0.67 -10 0.34 -10 0 C-6.26432828 -0.76411467 -3.65188082 -1.07174763 0 0 Z " fill="#D6463F" transform="translate(136,360)"/>
<path d="M0 0 C0.66 0.66 1.32 1.32 2 2 C1.34 3.32 0.68 4.64 0 6 C0.99 6.99 1.98 7.98 3 9 C2.67 9.99 2.34 10.98 2 12 C0.68 11.67 -0.64 11.34 -2 11 C-1.67 10.01 -1.34 9.02 -1 8 C-1.66 8 -2.32 8 -3 8 C-3.103125 8.639375 -3.20625 9.27875 -3.3125 9.9375 C-3.539375 10.618125 -3.76625 11.29875 -4 12 C-4.99 12.33 -5.98 12.66 -7 13 C-7.98373155 9.86994506 -8.1874467 8.43737563 -6.875 5.375 C-4.8276431 2.78168126 -2.92068642 1.49981194 0 0 Z " fill="#F22E2A" transform="translate(353,166)"/>
<path d="M0 0 C1.15822266 -0.020625 2.31644531 -0.04125 3.50976562 -0.0625 C5.17362305 -0.07023437 5.17362305 -0.07023437 6.87109375 -0.078125 C8.39947876 -0.09214355 8.39947876 -0.09214355 9.95874023 -0.10644531 C12.90598774 0.29702223 13.773524 0.9369651 15.5625 3.25 C15.2325 3.91 14.9025 4.57 14.5625 5.25 C13.593125 4.92386719 12.62375 4.59773438 11.625 4.26171875 C7.24627366 3.01395795 3.08785973 2.99036759 -1.4375 3.0625 C-2.20578125 3.06314453 -2.9740625 3.06378906 -3.765625 3.06445312 C-8.41631248 3.10004512 -12.84992432 3.48743755 -17.4375 4.25 C-12.35731184 -1.06110581 -7.02974908 0.03119134 0 0 Z " fill="#E33831" transform="translate(251.4375,74.75)"/>
<path d="M0 0 C2.46800047 1.15173355 4.04783565 2.04783565 6 4 C3.33955924 6.66044076 1.88515098 7.012761 -1.9375 7.4375 C-6.01010684 7.30809006 -8.1007869 5.8992131 -11 3 C-10.67 2.34 -10.34 1.68 -10 1 C-7.03 1.495 -7.03 1.495 -4 2 C-4.33 2.99 -4.66 3.98 -5 5 C-3.31295807 3.69254251 -1.64639965 2.35827971 0 1 C0 0.67 0 0.34 0 0 Z " fill="#E55952" transform="translate(181,290)"/>
<path d="M0 0 C-0.33 0.33 -0.66 0.66 -1 1 C-0.01 1.33 0.98 1.66 2 2 C1.67 2.66 1.34 3.32 1 4 C-1.64 3.67 -4.28 3.34 -7 3 C-7.20625 3.598125 -7.4125 4.19625 -7.625 4.8125 C-9.53549209 7.85191923 -11.71404225 8.69930839 -15 10 C-15.66 9.67 -16.32 9.34 -17 9 C-13.65596696 3.67994744 -6.44174215 -2.14724738 0 0 Z " fill="#E65A58" transform="translate(284,348)"/>
<path d="M0 0 C3.53391969 1.48171072 5.59930326 3.45548562 8.125 6.3125 C8.80820312 7.07175781 9.49140625 7.83101563 10.1953125 8.61328125 C12.00891715 11.01179303 13.02777353 13.16851568 14 16 C13.34 16.33 12.68 16.66 12 17 C12 16.34 12 15.68 12 15 C10.68 15 9.36 15 8 15 C6.64560332 12.29120665 6.93498549 9.99066732 7 7 C4.69 6.34 2.38 5.68 0 5 C0 3.35 0 1.7 0 0 Z " fill="#DD5957" transform="translate(348,104)"/>
<path d="M0 0 C-0.33 0.66 -0.66 1.32 -1 2 C-1.92683594 1.98839844 -2.85367188 1.97679688 -3.80859375 1.96484375 C-5.60490234 1.95130859 -5.60490234 1.95130859 -7.4375 1.9375 C-9.22994141 1.92009766 -9.22994141 1.92009766 -11.05859375 1.90234375 C-13.88873341 1.66098208 -13.88873341 1.66098208 -15 3 C-16.80429123 3.28671723 -18.61966002 3.50547961 -20.4375 3.6875 C-21.42621094 3.79449219 -22.41492188 3.90148437 -23.43359375 4.01171875 C-26 4 -26 4 -28 2 C-18.05588191 -0.67493754 -10.21618925 -1.28866825 0 0 Z " fill="#E3605C" transform="translate(196,92)"/>
<path d="M0 0 C0.66 0.33 1.32 0.66 2 1 C1.67 1.78375 1.34 2.5675 1 3.375 C-0.11866511 5.84332497 -0.11866511 5.84332497 0 8 C0.99 8.33 1.98 8.66 3 9 C2.67 12.96 2.34 16.92 2 21 C1.67 21 1.34 21 1 21 C0.96132812 20.02160156 0.96132812 20.02160156 0.921875 19.0234375 C0.55209936 13.32553098 0.03071841 9.34893302 -4 5 C-6.30927042 3.69669931 -8.47483325 2.87409618 -11 2 C-11 1.67 -11 1.34 -11 1 C-4.375 0.875 -4.375 0.875 -1 2 C-0.67 1.34 -0.34 0.68 0 0 Z " fill="#E06360" transform="translate(241,358)"/>
<path d="M0 0 C0 0.66 0 1.32 0 2 C-7.41961553 5.2109619 -13.84471983 7.98180072 -22 7 C-22.69480469 6.92007812 -23.38960938 6.84015625 -24.10546875 6.7578125 C-25.7422766 6.54218512 -27.37245878 6.27702829 -29 6 C-29 5.67 -29 5.34 -29 5 C-27.35451172 4.90912109 -27.35451172 4.90912109 -25.67578125 4.81640625 C-24.22134346 4.73195502 -22.76691695 4.64730934 -21.3125 4.5625 C-20.59126953 4.52318359 -19.87003906 4.48386719 -19.12695312 4.44335938 C-15.33292718 4.21814322 -11.71348508 3.87160695 -8 3 C-8 2.34 -8 1.68 -8 1 C-5.23735711 0.40267181 -2.83967231 0 0 0 Z " fill="#D5433F" transform="translate(309,258)"/>
<path d="M0 0 C2.0625 0.4375 2.0625 0.4375 4 1 C4 1.99 4 2.98 4 4 C3.34 4 2.68 4 2 4 C2 4.66 2 5.32 2 6 C0.03533587 7.06775224 -1.96855359 8.06553465 -4 9 C-6 8 -6 8 -7.125 4.9375 C-7.41375 3.968125 -7.7025 2.99875 -8 2 C-6.865625 1.855625 -5.73125 1.71125 -4.5625 1.5625 C-1.19222799 1.38828522 -1.19222799 1.38828522 0 0 Z " fill="#E24744" transform="translate(394,392)"/>
<path d="M0 0 C0.65234375 1.7421875 0.65234375 1.7421875 1 4 C0.00390625 6.0703125 0.00390625 6.0703125 -1.4375 8.125 C-3.47153972 10.81832907 -3.47153972 10.81832907 -4 14 C-4.5775 14.12375 -5.155 14.2475 -5.75 14.375 C-8.02335767 15.00648824 -9.9253529 15.88858191 -12 17 C-12.66 16.34 -13.32 15.68 -14 15 C-9.25 11 -9.25 11 -7 11 C-6.773125 10.484375 -6.54625 9.96875 -6.3125 9.4375 C-4.5024447 6.07596873 -2.26003596 3.07088856 0 0 Z " fill="#DF3A32" transform="translate(350,162)"/>
<path d="M0 0 C0.82638376 2.89234315 1 4.88742431 1 8 C0.34 8 -0.32 8 -1 8 C-0.855625 8.80824219 -0.71125 9.61648438 -0.5625 10.44921875 C-0.2840625 12.05216797 -0.2840625 12.05216797 0 13.6875 C0.185625 14.74324219 0.37125 15.79898437 0.5625 16.88671875 C0.95068074 19.64904062 1.08259976 22.21742043 1 25 C1.66 25.33 2.32 25.66 3 26 C2.34 26.66 1.68 27.32 1 28 C-2.59882114 19.40460129 -4.79551924 12.42527976 -1.5 3.4375 C-1.005 2.303125 -0.51 1.16875 0 0 Z " fill="#DC736F" transform="translate(142,362)"/>
<path d="M0 0 C1.32 0 2.64 0 4 0 C4 0.99 4 1.98 4 3 C5.0725 2.79375 6.145 2.5875 7.25 2.375 C10.87619096 2.0123809 12.08291076 2.01637931 15 4 C14.34 5.32 13.68 6.64 13 8 C12.67 7.67 12.34 7.34 12 7 C11.0925 7.0825 10.185 7.165 9.25 7.25 C6 7 6 7 3.1875 4.625 C1 2 1 2 0 0 Z " fill="#E63D3A" transform="translate(144,390)"/>
<path d="M0 0 C-0.47620289 4.37653129 -1.66899889 6.06538005 -5.0625 8.8125 C-5.79597656 9.41707031 -6.52945312 10.02164062 -7.28515625 10.64453125 C-7.85105469 11.09183594 -8.41695313 11.53914063 -9 12 C-10.40167793 9.19664415 -9.96536981 7.9650644 -9 5 C-4.88888889 0 -4.88888889 0 0 0 Z " fill="#F03027" transform="translate(362,356)"/>
<path d="M0 0 C0.53625 0.680625 1.0725 1.36125 1.625 2.0625 C3.84786726 4.33716893 3.84786726 4.33716893 6.75 3.75 C7.8225 3.5025 8.895 3.255 10 3 C12.67425933 2.89862916 15.32257545 2.95383751 18 3 C18 3.66 18 4.32 18 5 C15.36 5.66 12.72 6.32 10 7 C10 7.33 10 7.66 10 8 C6.80097361 8.08886184 4.07322544 7.91058531 1 7 C0.67 4.69 0.34 2.38 0 0 Z " fill="#E46660" transform="translate(300,88)"/>
<path d="M0 0 C0.66 0 1.32 0 2 0 C1.89300781 0.86882812 1.78601563 1.73765625 1.67578125 2.6328125 C0.99770428 9.15110082 0.58238108 13.20490705 4 19 C3.1875 21.375 3.1875 21.375 2 23 C-1.43213537 16.87118684 -2.45291234 10.90691324 -2 4 C-1 1.5 -1 1.5 0 0 Z " fill="#D34F49" transform="translate(215,365)"/>
<path d="M0 0 C3.9784047 -0.4626052 5.52281478 -0.36873404 8.75 2.125 C12.72848558 7.20862046 13.36774523 11.62574937 13 18 C12.67 18.66 12.34 19.32 12 20 C11.34 20 10.68 20 10 20 C10.03480469 19.41992188 10.06960937 18.83984375 10.10546875 18.2421875 C10.2861345 13.02869013 9.98637346 9.4795602 7 5 C5.07977297 3.22590192 5.07977297 3.22590192 3 2 C2.01 1.34 1.02 0.68 0 0 Z " fill="#DD514F" transform="translate(171,360)"/>
<path d="M0 0 C2.475 0.99 2.475 0.99 5 2 C5.25417629 5.4569756 5.47407622 8.91528826 5.6875 12.375 C5.76033203 13.35984375 5.83316406 14.3446875 5.90820312 15.359375 C5.96298828 16.30039062 6.01777344 17.24140625 6.07421875 18.2109375 C6.13182373 19.08024902 6.18942871 19.94956055 6.2487793 20.84521484 C6.16668213 21.55629395 6.08458496 22.26737305 6 23 C5.01 23.66 4.02 24.32 3 25 C2.34 24.34 1.68 23.68 1 23 C1.66 22.01 2.32 21.02 3 20 C3.64717549 14.36355303 4.3109594 8.07175216 1 3.1875 C0.34 2.465625 -0.32 1.74375 -1 1 C-0.67 0.67 -0.34 0.34 0 0 Z " fill="#DE5553" transform="translate(387,361)"/>
<path d="M0 0 C0.66 0.33 1.32 0.66 2 1 C1.09066991 2.27609323 0.17217147 3.54565553 -0.75 4.8125 C-1.26046875 5.52019531 -1.7709375 6.22789062 -2.296875 6.95703125 C-4.02482358 9.02977691 -5.78526476 10.47375854 -8 12 C-8 10.68 -8 9.36 -8 8 C-8.99 7.67 -9.98 7.34 -11 7 C-10.67 5.68 -10.34 4.36 -10 3 C-9.34 3 -8.68 3 -8 3 C-7.67 3.99 -7.34 4.98 -7 6 C-6.34 6 -5.68 6 -5 6 C-4.9175 5.38125 -4.835 4.7625 -4.75 4.125 C-4 2 -4 2 -2.0625 0.6875 C-1.381875 0.460625 -0.70125 0.23375 0 0 Z " fill="#E23E37" transform="translate(360,171)"/>
<path d="M0 0 C1.65 0 3.3 0 5 0 C3.32932325 3.34135351 -0.26683504 4.15469443 -3.5546875 5.68359375 C-5.85145552 6.92003277 -7.20569315 8.15734357 -9 10 C-9.66 10 -10.32 10 -11 10 C-11 8.35 -11 6.7 -11 5 C-9.125 3.9375 -9.125 3.9375 -7 3 C-6.34 3.33 -5.68 3.66 -5 4 C-4.67 3.01 -4.34 2.02 -4 1 C-2.68 1.33 -1.36 1.66 0 2 C0 1.34 0 0.68 0 0 Z " fill="#DF3A36" transform="translate(229,79)"/>
<path d="M0 0 C0.33 0.66 0.66 1.32 1 2 C1.66 2.33 2.32 2.66 3 3 C-1.02206335 5.90275073 -3.42363813 6.27846132 -8.3125 5.6875 C-9.91544922 5.50767578 -9.91544922 5.50767578 -11.55078125 5.32421875 C-12.35902344 5.21722656 -13.16726562 5.11023438 -14 5 C-14.33 4.01 -14.66 3.02 -15 2 C-14.25234375 2.02320313 -13.5046875 2.04640625 -12.734375 2.0703125 C-11.74953125 2.08835937 -10.7646875 2.10640625 -9.75 2.125 C-8.77546875 2.14820313 -7.8009375 2.17140625 -6.796875 2.1953125 C-3.9803502 1.99862781 -2.39050964 1.44568916 0 0 Z " fill="#E04B49" transform="translate(237,386)"/>
<path d="M0 0 C0.33 0 0.66 0 1 0 C1 4.95 1 9.9 1 15 C4.3 15 7.6 15 11 15 C11 15.99 11 16.98 11 18 C9.35425434 18.02688151 7.70838587 18.04634123 6.0625 18.0625 C5.14597656 18.07410156 4.22945313 18.08570313 3.28515625 18.09765625 C1 18 1 18 0 17 C-0.07325168 14.13732433 -0.09238205 11.299281 -0.0625 8.4375 C-0.05798828 7.63119141 -0.05347656 6.82488281 -0.04882812 5.99414062 C-0.03700518 3.99606244 -0.01906914 1.99802217 0 0 Z " fill="#D8605C" transform="translate(330,384)"/>
<path d="M0 0 C0.33 0 0.66 0 1 0 C1 8.25 1 16.5 1 25 C-6.80769231 23.88461538 -6.80769231 23.88461538 -9 21 C-9.66 20.34 -10.32 19.68 -11 19 C-6.38308839 19.52464905 -4.90012114 20.07490914 -1 23 C-0.67 15.41 -0.34 7.82 0 0 Z " fill="#DB716D" transform="translate(305,328)"/>
<path d="M0 0 C0.99 0.33 1.98 0.66 3 1 C1.53035467 3.20446799 0.05901638 5.40724619 -1.42578125 7.6015625 C-2.96786069 9.88273476 -2.96786069 9.88273476 -4.04296875 11.8984375 C-4.9375 13.5 -4.9375 13.5 -7 16 C-10.75 16.875 -10.75 16.875 -14 17 C-14.33 16.34 -14.66 15.68 -15 15 C-12.69 15 -10.38 15 -8 15 C-8 14.34 -8 13.68 -8 13 C-7.34 13 -6.68 13 -6 13 C-6 11.68 -6 10.36 -6 9 C-5.34 9 -4.68 9 -4 9 C-3.896875 8.071875 -3.79375 7.14375 -3.6875 6.1875 C-2.9929808 2.96745642 -2.52259061 1.97420135 0 0 Z " fill="#D9433E" transform="translate(213,92)"/>
<path d="M0 0 C0.95003906 0.09925781 1.90007812 0.19851563 2.87890625 0.30078125 C5.4375 0.6875 5.4375 0.6875 8.4375 1.6875 C8.7675 2.6775 9.0975 3.6675 9.4375 4.6875 C2.99775419 4.06429879 -3.23822401 3.04741738 -9.5625 1.6875 C-6.17726169 -0.40126406 -3.91195379 -0.44175805 0 0 Z " fill="#D74B47" transform="translate(381.5625,346.3125)"/>
<path d="M0 0 C-0.33 1.98 -0.66 3.96 -1 6 C-1.66 6 -2.32 6 -3 6 C-3.33 7.32 -3.66 8.64 -4 10 C-5.32 9.34 -6.64 8.68 -8 8 C-7.32253522 3.25774652 -4.9532836 0 0 0 Z " fill="#EF2F27" transform="translate(402,384)"/>
<path d="M0 0 C0.66 0 1.32 0 2 0 C2 0.66 2 1.32 2 2 C2.66 2 3.32 2 4 2 C4 2.66 4 3.32 4 4 C4.66 4 5.32 4 6 4 C8.15305957 7.85756507 9.39253254 10.55129785 9 15 C7.35 14.67 5.7 14.34 4 14 C3 11 3 11 3.5 9.0625 C4.07702481 6.68227266 3.74022853 5.30293321 3 3 C2.34 3 1.68 3 1 3 C0.67 2.01 0.34 1.02 0 0 Z " fill="#DD5953" transform="translate(246,352)"/>
<path d="M0 0 C-1.41414447 3.53536118 -2.65353284 4.37747047 -6 6 C-7.01241685 7.32392972 -8.01439389 8.65599167 -9 10 C-9.66 10 -10.32 10 -11 10 C-11 11.65 -11 13.3 -11 15 C-11.66 14.67 -12.32 14.34 -13 14 C-12.67 12.35 -12.34 10.7 -12 9 C-11.34 9 -10.68 9 -10 9 C-9.773125 8.2575 -9.54625 7.515 -9.3125 6.75 C-7.29817262 2.52950454 -4.78175657 0 0 0 Z " fill="#DA6767" transform="translate(364,351)"/>
<path d="M0 0 C0.66 0.33 1.32 0.66 2 1 C1.34 2.32 0.68 3.64 0 5 C-1.79093191 5.08086147 -3.58289628 5.13912702 -5.375 5.1875 C-6.87160156 5.23970703 -6.87160156 5.23970703 -8.3984375 5.29296875 C-9.25695312 5.19628906 -10.11546875 5.09960938 -11 5 C-11.66 4.01 -12.32 3.02 -13 2 C-8.71 2 -4.42 2 0 2 C0 1.34 0 0.68 0 0 Z " fill="#D7736C" transform="translate(108,397)"/>
<path d="M0 0 C0.66 0.66 1.32 1.32 2 2 C1.67 2.99 1.34 3.98 1 5 C0.34 5 -0.32 5 -1 5 C-2.24404677 6.94576739 -2.24404677 6.94576739 -1.5 9 C-1 11 -1 11 -2 13 C-2.99 13 -3.98 13 -5 13 C-6.3455425 6.63925363 -6.3455425 6.63925363 -4.75 3.6875 C-3 2 -3 2 0 0 Z " fill="#E92C26" transform="translate(390,388)"/>
<path d="M0 0 C0.99 0.495 0.99 0.495 2 1 C2.7109375 3.14453125 2.7109375 3.14453125 3.375 5.8125 C4.52359279 9.94154381 5.63252326 12.2131227 9 15 C9 15.66 9 16.32 9 17 C8.01 17 7.02 17 6 17 C5.67 16.34 5.34 15.68 5 15 C4.01 15 3.02 15 2 15 C2.04125 14.2575 2.0825 13.515 2.125 12.75 C2.19392766 10.04468892 2.19392766 10.04468892 1 8.0625 C-0.33343743 5.3122853 -0.1370035 3.01407708 0 0 Z " fill="#E04D4A" transform="translate(152,372)"/>
<path d="M0 0 C2 3 2 3 2 5 C2.66 5 3.32 5 4 5 C5.96301592 8.50538557 6.95902388 12.13351728 8 16 C7.34 16.66 6.68 17.32 6 18 C2.63438409 11.9394075 0.38669459 6.96050253 0 0 Z " fill="#DD635F" transform="translate(133,155)"/>
<path d="M0 0 C3.00617269 3.00617269 2.59585316 5.82381598 3 10 C2.01 10.66 1.02 11.32 0 12 C-0.66 11.34 -1.32 10.68 -2 10 C-1.67 9.67 -1.34 9.34 -1 9 C-2.32 8.34 -3.64 7.68 -5 7 C-4.0409375 6.1028125 -4.0409375 6.1028125 -3.0625 5.1875 C-0.79689611 3.09189663 -0.79689611 3.09189663 0 0 Z " fill="#E74D4A" transform="translate(180,380)"/>
<path d="M0 0 C2.31 0.33 4.62 0.66 7 1 C5.02 3.97 5.02 3.97 3 7 C1.35 6.67 -0.3 6.34 -2 6 C-1.49396008 3.83125748 -1.00016187 2.00032373 0 0 Z " fill="#E84845" transform="translate(318,242)"/>
<path d="M0 0 C1.32 0.33 2.64 0.66 4 1 C3.8125 3.3125 3.8125 3.3125 3 6 C0.4375 7.8125 0.4375 7.8125 -2 9 C-2 6.69 -2 4.38 -2 2 C-1.34 2 -0.68 2 0 2 C0 1.34 0 0.68 0 0 Z " fill="#E34C43" transform="translate(248,388)"/>
<path d="M0 0 C1.65 0 3.3 0 5 0 C5.33 0.66 5.66 1.32 6 2 C4.54550599 3.0055761 3.08627557 4.00430435 1.625 5 C0.40683594 5.8353125 0.40683594 5.8353125 -0.8359375 6.6875 C-3 8 -3 8 -5 8 C-4.67 6.68 -4.34 5.36 -4 4 C-3.34 4 -2.68 4 -2 4 C-1.34 2.68 -0.68 1.36 0 0 Z " fill="#DF4C4C" transform="translate(216,267)"/>
<path d="M0 0 C0.64775391 0.86431641 0.64775391 0.86431641 1.30859375 1.74609375 C2.38242914 3.17704761 3.45777404 4.60687092 4.53515625 6.03515625 C5.03917969 6.70417969 5.54320312 7.37320313 6.0625 8.0625 C6.56910156 8.73410156 7.07570312 9.40570313 7.59765625 10.09765625 C8.77792898 11.69875045 9.896642 13.344963 11 15 C8.75 14.9375 8.75 14.9375 6 14 C4.32150176 11.7691525 3.24000737 9.52594094 2 7 C0.68 7.33 -0.64 7.66 -2 8 C-2 7.01 -2 6.02 -2 5 C-1.34 5 -0.68 5 0 5 C0 3.35 0 1.7 0 0 Z " fill="#DE3E39" transform="translate(150,161)"/>
<path d="M0 0 C4.29 0 8.58 0 13 0 C12.67 0.99 12.34 1.98 12 3 C10.37509046 3.02698189 8.75005367 3.04638757 7.125 3.0625 C5.76761719 3.07990234 5.76761719 3.07990234 4.3828125 3.09765625 C2 3 2 3 0 2 C0 1.34 0 0.68 0 0 Z " fill="#D2716C" transform="translate(306,399)"/>
<path d="M0 0 C0.33 0 0.66 0 1 0 C1 1.98 1 3.96 1 6 C1.99 6 2.98 6 4 6 C4 6.99 4 7.98 4 9 C4.99 9.66 5.98 10.32 7 11 C7 11.66 7 12.32 7 13 C7.66 13 8.32 13 9 13 C9.33 14.32 9.66 15.64 10 17 C9.34 17 8.68 17 8 17 C8 16.34 8 15.68 8 15 C7.34 15 6.68 15 6 15 C6 14.34 6 13.68 6 13 C5.34 13 4.68 13 4 13 C0.93406654 9.09790287 -0.65292143 5.97479289 -1 1 C-0.67 0.67 -0.34 0.34 0 0 Z " fill="#E17874" transform="translate(264,381)"/>
<path d="M0 0 C0.33 0.66 0.66 1.32 1 2 C0.328125 3.875 0.328125 3.875 -0.75 6 C-1.26820313 7.051875 -1.26820313 7.051875 -1.796875 8.125 C-3 10 -3 10 -6 12 C-5.67 8.7 -5.34 5.4 -5 2 C-3.02 2.495 -3.02 2.495 -1 3 C-0.67 2.01 -0.34 1.02 0 0 Z " fill="#FDD6CF" transform="translate(350,158)"/>
<path d="M0 0 C-0.6875 1.9375 -0.6875 1.9375 -2 4 C-4.1875 4.625 -4.1875 4.625 -7 5 C-9.33762223 5.65146849 -11.67190457 6.31526605 -14 7 C-14 6.34 -14 5.68 -14 5 C-5.61290323 0 -5.61290323 0 0 0 Z " fill="#DF645F" transform="translate(163,347)"/>
<path d="M0 0 C2.475 0.99 2.475 0.99 5 2 C1.4912812 5.09592835 -1.49197399 6.74194623 -6 8 C-5.67 7.01 -5.34 6.02 -5 5 C-4.34 5 -3.68 5 -3 5 C-2.67 4.01 -2.34 3.02 -2 2 C-1.34 2 -0.68 2 0 2 C0 1.34 0 0.68 0 0 Z " fill="#E15753" transform="translate(342,186)"/>
<path d="M0 0 C0.66 1.32 1.32 2.64 2 4 C1.01 4.495 1.01 4.495 0 5 C-0.680625 6.7325 -0.680625 6.7325 -1.375 8.5 C-3 12 -3 12 -5.1875 12.9375 C-5.785625 12.958125 -6.38375 12.97875 -7 13 C-6.34 12.67 -5.68 12.34 -5 12 C-4.87625 11.113125 -4.7525 10.22625 -4.625 9.3125 C-3.89267441 5.43117437 -2.3250203 3.1500275 0 0 Z " fill="#DC423D" transform="translate(178,169)"/>
<path d="M0 0 C0.80566406 0.04833984 1.61132812 0.09667969 2.44140625 0.14648438 C3.28316406 0.20255859 4.12492188 0.25863281 4.9921875 0.31640625 C6.26642578 0.3947168 6.26642578 0.3947168 7.56640625 0.47460938 C9.66697874 0.60442003 11.76712941 0.74102365 13.8671875 0.87890625 C13.8671875 1.20890625 13.8671875 1.53890625 13.8671875 1.87890625 C12.79339844 1.93949219 11.71960938 2.00007813 10.61328125 2.0625 C9.17707435 2.14698276 7.74087692 2.23162679 6.3046875 2.31640625 C5.60021484 2.35572266 4.89574219 2.39503906 4.16992188 2.43554688 C-0.3126666 2.70408904 -4.69574747 3.18506822 -9.1328125 3.87890625 C-6.06269568 0.66923867 -4.45276215 -0.28221732 0 0 Z " fill="#D53C36" transform="translate(243.1328125,75.12109375)"/>
<path d="M0 0 C3.63 0.33 7.26 0.66 11 1 C11 2.32 11 3.64 11 5 C11.66 5 12.32 5 13 5 C13 5.66 13 6.32 13 7 C13.66 7.33 14.32 7.66 15 8 C11.41655009 8 10.39490569 7.1417843 7.5 5.125 C6.7265625 4.59132813 5.953125 4.05765625 5.15625 3.5078125 C4.4446875 3.01023437 3.733125 2.51265625 3 2 C2.01 1.34 1.02 0.68 0 0 Z " fill="#DE443D" transform="translate(267,80)"/>
<path d="M0 0 C0.33 0.66 0.66 1.32 1 2 C1.99 1.67 2.98 1.34 4 1 C4 1.99 4 2.98 4 4 C5.32 4 6.64 4 8 4 C8 5.65 8 7.3 8 9 C6.68 8.67 5.36 8.34 4 8 C4 7.34 4 6.68 4 6 C3.34 6 2.68 6 2 6 C0 3 0 3 0 0 Z " fill="#E0504B" transform="translate(352,386)"/>
<path d="M0 0 C4.29 0 8.58 0 13 0 C13.33 0.99 13.66 1.98 14 3 C7.07 2.505 7.07 2.505 0 2 C0 1.34 0 0.68 0 0 Z " fill="#DF6B67" transform="translate(306,326)"/>
<path d="M0 0 C0.763125 0.309375 1.52625 0.61875 2.3125 0.9375 C4.18789677 1.67893593 6.08684652 2.36228217 8 3 C8 3.66 8 4.32 8 5 C8.639375 5.268125 9.27875 5.53625 9.9375 5.8125 C12 7 12 7 13 10 C8.25 8.125 8.25 8.125 6 7 C6 6.34 6 5.68 6 5 C5.38125 4.731875 4.7625 4.46375 4.125 4.1875 C2 3 2 3 0 0 Z " fill="#D86662" transform="translate(147,182)"/>
<path d="M0 0 C0.66 0 1.32 0 2 0 C1.95875 1.2375 1.9175 2.475 1.875 3.75 C1.86324485 7.08258417 2.28096912 9.0991354 4 12 C4 12.99 4 13.98 4 15 C3.34 15 2.68 15 2 15 C1.72285156 14.30132812 1.44570313 13.60265625 1.16015625 12.8828125 C0.79792969 11.97273437 0.43570312 11.06265625 0.0625 10.125 C-0.29714844 9.22007812 -0.65679687 8.31515625 -1.02734375 7.3828125 C-1.94901262 5.03862333 -1.94901262 5.03862333 -3 3 C-2.01 3 -1.02 3 0 3 C0 2.01 0 1.02 0 0 Z " fill="#DE3B35" transform="translate(350,121)"/>
<path d="M0 0 C0.8353125 1.2065625 0.8353125 1.2065625 1.6875 2.4375 C4.21864487 5.24228216 5.32579134 5.69381595 9 6 C8.67 6.66 8.34 7.32 8 8 C5 8 2 8 -1 8 C-2.2077558 4.37673261 -1.54311128 3.35853631 0 0 Z " fill="#FDDED2" transform="translate(291,103)"/>
<path d="M0 0 C3.49234244 -0.09978121 6.59437148 0.22157062 10 1 C10.33 2.32 10.66 3.64 11 5 C8 6 8 6 6.2109375 5.29296875 C5.60507813 4.92816406 4.99921875 4.56335938 4.375 4.1875 C3.76398438 3.83042969 3.15296875 3.47335937 2.5234375 3.10546875 C1 2 1 2 0 0 Z " fill="#E36860" transform="translate(209,395)"/>
<path d="M0 0 C3.465 1.485 3.465 1.485 7 3 C7 3.66 7 4.32 7 5 C7.66 5 8.32 5 9 5 C9 5.66 9 6.32 9 7 C9.66 7 10.32 7 11 7 C11.33 7.99 11.66 8.98 12 10 C11.01 10.495 11.01 10.495 10 11 C9.67 10.34 9.34 9.68 9 9 C8.01 8.34 7.02 7.68 6 7 C6 6.01 6 5.02 6 4 C4.35 3.67 2.7 3.34 1 3 C0.67 2.01 0.34 1.02 0 0 Z " fill="#DD5F5C" transform="translate(180,349)"/>
<path d="M0 0 C1.0725 0.309375 2.145 0.61875 3.25 0.9375 C5.82866222 1.66812096 8.39512102 2.37482904 11 3 C11 3.66 11 4.32 11 5 C11.99 5.33 12.98 5.66 14 6 C13.01 6.33 12.02 6.66 11 7 C10.67 6.01 10.34 5.02 10 4 C9.01 4.33 8.02 4.66 7 5 C4.56580949 4.54358928 2.35526472 3.78508824 0 3 C0 2.01 0 1.02 0 0 Z " fill="#DC5A54" transform="translate(266,64)"/>
<path d="M0 0 C0.33 0.66 0.66 1.32 1 2 C3.02463255 2.65213292 3.02463255 2.65213292 5 3 C4.67 3.99 4.34 4.98 4 6 C3.01 6 2.02 6 1 6 C-1.15028304 6.94978897 -1.15028304 6.94978897 -3 8 C-2.67 7.01 -2.34 6.02 -2 5 C-2.33 4.01 -2.66 3.02 -3 2 C-2.01 1.34 -1.02 0.68 0 0 Z " fill="#E65B58" transform="translate(301,393)"/>
<path d="M0 0 C0.33 0 0.66 0 1 0 C1 3.63 1 7.26 1 11 C1.66 11 2.32 11 3 11 C2.67 12.65 2.34 14.3 2 16 C-0.75562541 13.24437459 -0.43034519 11.2779595 -0.6875 7.4375 C-0.77386719 6.26058594 -0.86023438 5.08367187 -0.94921875 3.87109375 C-0.96597656 2.92363281 -0.98273438 1.97617187 -1 1 C-0.67 0.67 -0.34 0.34 0 0 Z " fill="#DE6561" transform="translate(350,370)"/>
<path d="M0 0 C0.33 0.99 0.66 1.98 1 3 C0.01 3.33 -0.98 3.66 -2 4 C-2.73323796 6.01508358 -2.73323796 6.01508358 -3 8 C-3.66 8 -4.32 8 -5 8 C-4.67 9.32 -4.34 10.64 -4 12 C-5.98 12.99 -5.98 12.99 -8 14 C-7.15634864 8.72717898 -4.05684355 3.44831702 0 0 Z " fill="#E27C7A" transform="translate(209,353)"/>
<path d="M0 0 C0.99 0.33 1.98 0.66 3 1 C3 1.66 3 2.32 3 3 C3.66 3 4.32 3 5 3 C4.67 7.29 4.34 11.58 4 16 C3.34 16 2.68 16 2 16 C2.03480469 14.89591797 2.03480469 14.89591797 2.0703125 13.76953125 C2.08835937 12.79371094 2.10640625 11.81789063 2.125 10.8125 C2.14820313 9.84957031 2.17140625 8.88664062 2.1953125 7.89453125 C1.9913544 4.87187222 1.26874632 2.73230015 0 0 Z " fill="#DB6964" transform="translate(302,365)"/>
<path d="M0 0 C0 0.66 0 1.32 0 2 C-1.45381897 2.69699552 -2.91322953 3.38233866 -4.375 4.0625 C-5.18710937 4.44535156 -5.99921875 4.82820313 -6.8359375 5.22265625 C-7.55007813 5.47917969 -8.26421875 5.73570312 -9 6 C-9.66 5.67 -10.32 5.34 -11 5 C-11 4.34 -11 3.68 -11 3 C-10.01 3 -9.02 3 -8 3 C-8 2.34 -8 1.68 -8 1 C-5.23735711 0.40267181 -2.83967231 0 0 0 Z " fill="#D86461" transform="translate(309,258)"/>
<path d="M0 0 C2.31 0.33 4.62 0.66 7 1 C7.33 2.65 7.66 4.3 8 6 C4.08597051 4.73058503 2.20927127 3.48832306 0 0 Z " fill="#FBD6CA" transform="translate(158,172)"/>
<path d="M0 0 C7.24997422 -0.28307925 13.90961228 0.49025965 21 2 C21 2.33 21 2.66 21 3 C17.37 3.33 13.74 3.66 10 4 C9.67 3.01 9.34 2.02 9 1 C6.03 1 3.06 1 0 1 C0 0.67 0 0.34 0 0 Z " fill="#E69691" transform="translate(245,61)"/>
<path d="M0 0 C0.99 0.33 1.98 0.66 3 1 C1.38405168 3.04119788 -0.2856382 5.04072937 -2 7 C-2.66 7 -3.32 7 -4 7 C-4.33 5.68 -4.66 4.36 -5 3 C-4.01 2.34 -3.02 1.68 -2 1 C-1.34 1.33 -0.68 1.66 0 2 C0 1.34 0 0.68 0 0 Z " fill="#E36463" transform="translate(189,390)"/>
<path d="M0 0 C0.66 0.33 1.32 0.66 2 1 C2 3.62113708 1.68707555 5.50935112 1 8 C1 7.34 1 6.68 1 6 C-0.65 6.66 -2.3 7.32 -4 8 C-3.49396008 5.83125748 -3.00016187 4.00032373 -2 2 C-1.34 2 -0.68 2 0 2 C0 1.34 0 0.68 0 0 Z " fill="#E4605B" transform="translate(147,354)"/>
<path d="M0 0 C0.66 0 1.32 0 2 0 C2.12375 0.804375 2.2475 1.60875 2.375 2.4375 C2.684375 3.7059375 2.684375 3.7059375 3 5 C3.66 5.33 4.32 5.66 5 6 C4.01 6.33 3.02 6.66 2 7 C1.67 7.99 1.34 8.98 1 10 C-0.32 9.34 -1.64 8.68 -3 8 C-2.01 7.67 -1.02 7.34 0 7 C0 4.69 0 2.38 0 0 Z " fill="#F02F29" transform="translate(392,353)"/>
<path d="M0 0 C2.375 2 2.375 2 4 4 C3.01 4.495 3.01 4.495 2 5 C2 4.34 2 3.68 2 3 C-3.57830016 2.87530901 -3.57830016 2.87530901 -9 4 C-9 3.34 -9 2.68 -9 2 C-5.50875983 -0.32749345 -4.10777749 -0.50299316 0 0 Z " fill="#D97777" transform="translate(339,326)"/>
<path d="M0 0 C2.31 0 4.62 0 7 0 C6.67 1.65 6.34 3.3 6 5 C4.68 4.67 3.36 4.34 2 4 C2 3.34 2 2.68 2 2 C1.34 2 0.68 2 0 2 C0 1.34 0 0.68 0 0 Z " fill="#E0463D" transform="translate(205,390)"/>
<path d="M0 0 C5.28 0.33 10.56 0.66 16 1 C16 1.33 16 1.66 16 2 C8.08 2.495 8.08 2.495 0 3 C0 2.01 0 1.02 0 0 Z " fill="#DE5E56" transform="translate(176,105)"/>
<path d="M0 0 C2.5 1.3125 2.5 1.3125 5 3 C5 3.99 5 4.98 5 6 C2.69 5.67 0.38 5.34 -2 5 C-2 2 -2 2 0 0 Z " fill="#DF5550" transform="translate(293,81)"/>
<path d="M0 0 C0.33 1.32 0.66 2.64 1 4 C0.34 4 -0.32 4 -1 4 C-1 4.99 -1 5.98 -1 7 C-2.65 7 -4.3 7 -6 7 C-6 6.34 -6 5.68 -6 5 C-5.34 5 -4.68 5 -4 5 C-4 4.34 -4 3.68 -4 3 C-3.34 3 -2.68 3 -2 3 C-2 2.34 -2 1.68 -2 1 C-1.34 0.67 -0.68 0.34 0 0 Z " fill="#DF655D" transform="translate(211,75)"/>
<path d="M0 0 C0.33 0 0.66 0 1 0 C1.33 4.29 1.66 8.58 2 13 C1.01 13.66 0.02 14.32 -1 15 C-1.66 14.34 -2.32 13.68 -3 13 C-2.34 12.01 -1.68 11.02 -1 10 C-0.54398739 7.49103314 -0.54398739 7.49103314 -0.375 4.8125 C-0.30023438 3.91144531 -0.22546875 3.01039063 -0.1484375 2.08203125 C-0.09945313 1.39496094 -0.05046875 0.70789063 0 0 Z " fill="#E88480" transform="translate(391,371)"/>
<path d="M0 0 C5.94 0.99 5.94 0.99 12 2 C12 2.33 12 2.66 12 3 C10.39773045 3.22245393 8.79303233 3.42746669 7.1875 3.625 C6.29417969 3.74101562 5.40085938 3.85703125 4.48046875 3.9765625 C2 4 2 4 -1 2 C-0.67 1.34 -0.34 0.68 0 0 Z " fill="#D6534D" transform="translate(168,346)"/>
<path d="M0 0 C4.29 0.33 8.58 0.66 13 1 C12.67 1.99 12.34 2.98 12 4 C8.04 4 4.08 4 0 4 C0 2.68 0 1.36 0 0 Z " fill="#FBCEC3" transform="translate(193,107)"/>
<path d="M0 0 C9.59453303 2.89066059 9.59453303 2.89066059 13 6 C7.25 6.125 7.25 6.125 5 5 C5 4.34 5 3.68 5 3 C2.525 2.01 2.525 2.01 0 1 C0 0.67 0 0.34 0 0 Z " fill="#FBCCBE" transform="translate(261,78)"/>
<path d="M0 0 C0.66 0.33 1.32 0.66 2 1 C1.67 1.66 1.34 2.32 1 3 C1.99 3 2.98 3 4 3 C4.33 4.32 4.66 5.64 5 7 C2.0625 6.25 2.0625 6.25 -1 5 C-1.875 2.875 -1.875 2.875 -2 1 C-1.34 0.67 -0.68 0.34 0 0 Z " fill="#E5554C" transform="translate(275,394)"/>
<path d="M0 0 C0.99 0 1.98 0 3 0 C3.33 1.32 3.66 2.64 4 4 C1.03 4 -1.94 4 -5 4 C-5 3.34 -5 2.68 -5 2 C-3.35 2 -1.7 2 0 2 C0 1.34 0 0.68 0 0 Z " fill="#D52F27" transform="translate(379,356)"/>
<path d="M0 0 C0.33 0 0.66 0 1 0 C0.49202991 4.3177458 -0.19682779 8.03302114 -2 12 C-3.1577506 8.52674819 -3.06866652 5.63932552 -3 2 C-2.01 2 -1.02 2 0 2 C0 1.34 0 0.68 0 0 Z " fill="#DB6966" transform="translate(365,158)"/>
<path d="M0 0 C1.32 0.33 2.64 0.66 4 1 C-0.455 4.465 -0.455 4.465 -5 8 C-5.33 7.01 -5.66 6.02 -6 5 C-2.25 2 -2.25 2 0 2 C0 1.34 0 0.68 0 0 Z " fill="#D9463F" transform="translate(165,109)"/>
<path d="M0 0 C2.46278801 2.46278801 2.99771255 4.70676982 4 8 C3.01 8.66 2.02 9.32 1 10 C0.63720544 8.71073008 0.28503302 7.41846728 -0.0625 6.125 C-0.35833984 5.04605469 -0.35833984 5.04605469 -0.66015625 3.9453125 C-1 2 -1 2 0 0 Z " fill="#E26E6C" transform="translate(215,378)"/>
<path d="M0 0 C2.03833424 1.2739589 4.03852126 2.61061923 6 4 C6 4.66 6 5.32 6 6 C4.33388095 6.042721 2.66617115 6.04063832 1 6 C0 5 0 5 -0.0625 2.4375 C-0.041875 1.633125 -0.02125 0.82875 0 0 Z " fill="#E16059" transform="translate(394,351)"/>
<path d="M0 0 C0.66 0.33 1.32 0.66 2 1 C-0.475 4.465 -0.475 4.465 -3 8 C-3.66 6.68 -4.32 5.36 -5 4 C-3 2 -3 2 0 0 Z " fill="#DF716E" transform="translate(360,171)"/>
<path d="M0 0 C0 0.99 0 1.98 0 3 C-3.96 3 -7.92 3 -12 3 C-11.67 2.34 -11.34 1.68 -11 1 C-7.25801961 0.29396596 -3.81207261 0 0 0 Z " fill="#E16460" transform="translate(244,62)"/>
<path d="M0 0 C2.97 0 5.94 0 9 0 C6.44931155 2.35448165 5.28982642 2.98327924 1.75 3.1875 C0.8425 3.125625 -0.065 3.06375 -1 3 C-0.67 2.01 -0.34 1.02 0 0 Z " fill="#DC5F5B" transform="translate(234,399)"/>
<path d="M0 0 C0.33 0.66 0.66 1.32 1 2 C0.06553465 4.03144641 -0.93224776 6.03533587 -2 8 C-2.66 8 -3.32 8 -4 8 C-4.33 8.66 -4.66 9.32 -5 10 C-5 8.68 -5 7.36 -5 6 C-4.34 6 -3.68 6 -3 6 C-3 4.68 -3 3.36 -3 2 C-2.01 1.34 -1.02 0.68 0 0 Z " fill="#DE706F" transform="translate(404,384)"/>
<path d="M0 0 C0.66 0.66 1.32 1.32 2 2 C1.34 3.98 0.68 5.96 0 8 C-1.65 7.67 -3.3 7.34 -5 7 C-4.0409375 6.6596875 -4.0409375 6.6596875 -3.0625 6.3125 C-0.72806339 5.14749104 -0.72806339 5.14749104 -0.25 2.375 C-0.1675 1.59125 -0.085 0.8075 0 0 Z " fill="#FED3C7" transform="translate(173,173)"/>
<path d="M0 0 C3.96 0.33 7.92 0.66 12 1 C12 1.33 12 1.66 12 2 C5.565 2.495 5.565 2.495 -1 3 C-0.67 2.01 -0.34 1.02 0 0 Z " fill="#E28E8A" transform="translate(283,359)"/>
<path d="M0 0 C-0.75 1.9375 -0.75 1.9375 -2 4 C-4.125 4.75 -4.125 4.75 -6 5 C-5.625 3.0625 -5.625 3.0625 -5 1 C-3 0 -3 0 0 0 Z " fill="#DC504C" transform="translate(364,351)"/>
<path d="M0 0 C0 1.98 0 3.96 0 6 C0.66 6.33 1.32 6.66 2 7 C0.68 7.33 -0.64 7.66 -2 8 C-2.66 5.69 -3.32 3.38 -4 1 C-1 0 -1 0 0 0 Z " fill="#F14E48" transform="translate(390,393)"/>
<path d="M0 0 C0.66 0.33 1.32 0.66 2 1 C2 1.66 2 2.32 2 3 C4.475 3.99 4.475 3.99 7 5 C7 5.33 7 5.66 7 6 C5.35 6 3.7 6 2 6 C1.67 5.01 1.34 4.02 1 3 C0.34 3 -0.32 3 -1 3 C-0.67 2.01 -0.34 1.02 0 0 Z " fill="#DF6A68" transform="translate(366,383)"/>
<path d="M0 0 C4.29 0 8.58 0 13 0 C13 0.99 13 1.98 13 3 C8.71 2.34 4.42 1.68 0 1 C0 0.67 0 0.34 0 0 Z " fill="#DE3C39" transform="translate(183,105)"/>
<path d="M0 0 C0.99 0.33 1.98 0.66 3 1 C1.515 4.465 1.515 4.465 0 8 C-0.66 7.67 -1.32 7.34 -2 7 C-2 5.68 -2 4.36 -2 3 C-1.34 3 -0.68 3 0 3 C0 2.01 0 1.02 0 0 Z " fill="#DC6160" transform="translate(155,364)"/>
<path d="M0 0 C5.53846154 -0.36923077 5.53846154 -0.36923077 7.875 1.5 C8.24625 1.995 8.6175 2.49 9 3 C8.34 3.66 7.68 4.32 7 5 C6.401875 4.54625 5.80375 4.0925 5.1875 3.625 C3.49409348 2.36704087 1.75522914 1.17015276 0 0 Z " fill="#E47674" transform="translate(171,360)"/>
<path d="M0 0 C0 0.99 0 1.98 0 3 C-3.3 2.34 -6.6 1.68 -10 1 C-10 0.67 -10 0.34 -10 0 C-6.33694766 -0.74926071 -3.57644848 -1.2380014 0 0 Z " fill="#DC4744" transform="translate(136,360)"/>
<path d="M0 0 C0.66 0 1.32 0 2 0 C2 0.66 2 1.32 2 2 C2.99 2.33 3.98 2.66 5 3 C3.02 3.99 1.04 4.98 -1 6 C-1.33 5.01 -1.66 4.02 -2 3 C-1.34 3 -0.68 3 0 3 C0 2.01 0 1.02 0 0 Z " fill="#E76764" transform="translate(206,274)"/>
<path d="M0 0 C0.66 0 1.32 0 2 0 C2 1.32 2 2.64 2 4 C2.99 4.33 3.98 4.66 5 5 C4.01 5.495 4.01 5.495 3 6 C0.375 4.5625 0.375 4.5625 -2 3 C-1.34 2.01 -0.68 1.02 0 0 Z " fill="#F52C2C" transform="translate(149,176)"/>
<path d="M0 0 C2.97 0.99 5.94 1.98 9 3 C9 3.33 9 3.66 9 4 C3.375 4.25 3.375 4.25 0 2 C0 1.34 0 0.68 0 0 Z " fill="#E16C66" transform="translate(333,95)"/>
<path d="M0 0 C4.875 4.75 4.875 4.75 6 7 C4.35 7.33 2.7 7.66 1 8 C0.67 5.36 0.34 2.72 0 0 Z " fill="#FCD5CA" transform="translate(281,89)"/>
<path d="M0 0 C-1 3 -1 3 -3 4 C-5.3329866 4.04022391 -7.66706666 4.04320247 -10 4 C-8.66666667 3.33333333 -7.33333333 2.66666667 -6 2 C-5.29875 1.62875 -4.5975 1.2575 -3.875 0.875 C-2 0 -2 0 0 0 Z " fill="#E95850" transform="translate(290,398)"/>
<path d="M0 0 C0.66 1.32 1.32 2.64 2 4 C1.01 4.495 1.01 4.495 0 5 C-1.65 3.68 -3.3 2.36 -5 1 C-3.35 0.67 -1.7 0.34 0 0 Z " fill="#E0615D" transform="translate(156,396)"/>
<path d="M0 0 C2.0625 0.75 2.0625 0.75 4 2 C4.33 2.99 4.66 3.98 5 5 C4.01 5 3.02 5 2 5 C1.67 4.34 1.34 3.68 1 3 C0.01 3 -0.98 3 -2 3 C-2 2.34 -2 1.68 -2 1 C-1.34 0.67 -0.68 0.34 0 0 Z " fill="#E05A55" transform="translate(156,384)"/>
<path d="M0 0 C2.2477975 2.05233685 3.0022242 3.00667261 4 6 C3.01 6.495 3.01 6.495 2 7 C2 6.34 2 5.68 2 5 C0.68 4.67 -0.64 4.34 -2 4 C-1.34 2.68 -0.68 1.36 0 0 Z " fill="#E05D57" transform="translate(358,114)"/>
<path d="M0 0 C0.66 0 1.32 0 2 0 C2.33 1.98 2.66 3.96 3 6 C2.01 6 1.02 6 0 6 C0 4.02 0 2.04 0 0 Z " fill="#E14848" transform="translate(355,111)"/>
<path d="M0 0 C0.33 1.32 0.66 2.64 1 4 C-0.32 4.33 -1.64 4.66 -3 5 C-3 5.66 -3 6.32 -3 7 C-3.66 6.67 -4.32 6.34 -5 6 C-3.35 4.02 -1.7 2.04 0 0 Z " fill="#E07A72" transform="translate(147,107)"/>
<path d="M0 0 C0.66 0.33 1.32 0.66 2 1 C1.34 2.65 0.68 4.3 0 6 C-0.99 5.67 -1.98 5.34 -3 5 C-3 4.01 -3 3.02 -3 2 C-2.01 1.34 -1.02 0.68 0 0 Z " fill="#DD4F4A" transform="translate(223,67)"/>
</svg>
